<?xml version="1.0" encoding="utf-8"?>
<!-- Generator: Adobe Illustrator 16.0.0, SVG Export Plug-In . SVG Version: 6.00 Build 0)  -->
<!DOCTYPE svg PUBLIC "-//W3C//DTD SVG 1.1//EN" "http://www.w3.org/Graphics/SVG/1.1/DTD/svg11.dtd">
<svg version="1.1" id="Layer_1" xmlns="http://www.w3.org/2000/svg" xmlns:xlink="http://www.w3.org/1999/xlink" x="0px" y="0px"
	 width="180px" height="180px" viewBox="0 0 180 180" enable-background="new 0 0 180 180" xml:space="preserve">
<g>
	<path fill-rule="evenodd" clip-rule="evenodd" fill="#306FC4" d="M180.749,36.004c0,35.756,0,71.513,0,107.269
		c-1.189,6.284-4.598,9.216-11.22,9.645c-0.938,0.061-1.881,0.04-2.821,0.04c-50.722,0.001-101.443,0.001-152.164,0
		c-0.999,0-2,0.027-2.996-0.064c-0.707-0.066-1.438-0.118-1.685-0.984c0.239-1.091,1.286-0.766,1.969-1.083
		c-3.298-2.552-4.888-5.783-4.88-10.026c0.062-34.074,0.064-68.148-0.002-102.223c-0.008-4.227,1.511-7.493,4.807-10.08
		c-0.633-0.376-1.601-0.094-1.896-1.018c0.143-0.922,0.865-1.008,1.579-1.081c0.996-0.103,1.996-0.076,2.994-0.076
		c50.823-0.002,101.646-0.002,152.468-0.005c1.647,0,3.279,0.095,4.914,0.332c4.824,0.7,8.181,4.061,8.763,8.865
		C180.602,35.698,180.679,35.846,180.749,36.004z"/>
	<path fill-rule="evenodd" clip-rule="evenodd" fill="#2E63AC" d="M0.084,36.004c1.101-3.292,2.794-6.109,6.11-7.628
		c1.173-0.537,2.371-0.964,3.69-0.903c1.577,0,3.154,0,4.784,0c-0.097,0.829-0.668,0.848-1.039,1.037
		c-3.96,2.016-5.802,5.241-5.799,9.672c0.021,34.187,0.032,68.373-0.013,102.561c-0.006,4.721,1.84,8.135,6.128,10.175
		c0.21,0.102,0.407,0.231,0.604,0.355c0.047,0.029,0.07,0.094,0.379,0.529c-1.854,0-3.447,0-5.042,0
		c-4.48-0.32-7.364-2.779-9.122-6.776c-0.254-0.576-0.178-1.278-0.682-1.752C0.084,107.518,0.084,71.761,0.084,36.004z"/>
	<path fill-rule="evenodd" clip-rule="evenodd" fill="#FEFEFE" d="M55.469,85.826c-0.254,2.331-1.588,2.624-3.271,2.423
		c-0.696-0.083-1.417-0.077-2.114-0.001c-1.699,0.183-3.181,0.059-3.586-2.288c0.288,2.427-1.087,2.338-2.626,2.3
		c-3.173-0.082-6.357-0.141-9.524,0.021c-1.746,0.091-2.797-0.345-3.099-2.131c-0.245-1.456-1.066-1.941-2.562-1.861
		c-1.083,0.056-1.638,0.402-1.827,1.398c-0.415,2.194-1.722,2.746-3.876,2.605c-3.211-0.214-6.447-0.056-9.917-0.056
		c0.526-1.177,0.98-2.177,1.421-3.181c2.869-6.561,5.758-13.112,8.581-19.693c0.455-1.06,0.976-1.54,2.2-1.47
		c2.11,0.12,4.233,0.069,6.349,0.022c1.714-0.038,3.514-0.344,3.916,2.333c-0.23-2.24,0.9-2.409,2.488-2.353
		c2.996,0.106,5.998,0.065,8.996,0.011c0.904-0.018,1.393,0.295,1.724,1.112c0.634,1.562,1.339,3.096,2.189,5.041
		c0.833-1.887,1.54-3.387,2.16-4.924c0.35-0.87,0.826-1.236,1.826-1.233c12.703,0.039,25.405,0.025,38.108,0.034
		c1.121,0.001,2.213,0.18,3.274,0.595c0.609,0.237,1.532,1.346,1.694-0.436c0.007-0.084,0.627-0.16,0.963-0.162
		c2.882-0.012,5.763-0.011,8.645-0.002c0.349,0.001,0.985,0.023,1.001,0.116c0.362,2.221,1.634,0.678,2.4,0.511
		c1.791-0.39,3.58-0.635,5.41-0.634c4.058,0.004,8.116,0.052,12.172-0.022c1.774-0.032,3.469-0.174,3.852,2.274
		c0.781-0.73-0.014-1.849,0.817-2.142c0.685-0.241,1.51-0.102,2.272-0.105c1.94-0.009,3.885,0.065,5.82-0.023
		c1.868-0.084,3.684-0.237,4.342,2.387c-0.301-2.496,1.098-2.446,2.674-2.39c2.349,0.085,4.705,0.072,7.055,0
		c1.105-0.034,1.554,0.244,1.546,1.444c-0.046,7.057-0.047,14.114,0.002,21.17c0.007,1.193-0.411,1.498-1.532,1.468
		c-2.586-0.068-5.182-0.13-7.76,0.018c-1.676,0.096-2.829-0.303-3.447-1.938c-0.128-0.339-0.274-0.778-0.745-0.89
		c-0.684,2.789-0.684,2.789-3.842,2.789c-2.763,0-5.532-0.113-8.289,0.04c-1.788,0.1-2.925-0.312-3.22-2.218
		c-0.215-1.386-0.995-1.844-2.451-1.809c-1.299,0.029-1.984,0.432-2.189,1.65c-0.34,2.027-1.533,2.516-3.482,2.378
		c-3.496-0.246-7.069,0.371-10.446-1.071c-0.256-0.11-0.696-0.299-0.777,0.019c-0.405,1.597-1.671,0.972-2.585,0.984
		c-4.527,0.058-9.057-0.018-13.584,0.054c-1.275,0.02-1.836-0.277-1.713-1.65c0.107-1.224,0.018-2.467-0.004-3.703
		c-0.005-0.282-0.042-0.641-0.398-0.677c-0.521-0.052-0.498,0.388-0.502,0.723c-0.016,1.41-0.058,2.824,0.001,4.232
		c0.041,0.959-0.23,1.342-1.269,1.339c-10.586-0.033-21.171-0.049-31.757,0.007C55.077,88.27,56.192,86.84,55.469,85.826z"/>
	<path fill-rule="evenodd" clip-rule="evenodd" fill="#FEFEFE" d="M47.291,104.978c0-3.646,0.036-7.292-0.022-10.938
		c-0.017-1.09,0.351-1.403,1.412-1.396c6.527,0.038,13.055,0.054,19.582-0.007c1.569-0.014,2.04,1.212,2.83,2.073
		c1.475,1.61,1.531,1.715,2.848,0.063c1.277-1.6,2.711-2.265,4.817-2.164c3.99,0.19,8.004,0.239,11.989,0.009
		c2.262-0.132,4.493,1.921,6.729,0.047c4.41,0.026,8.82,0.03,13.229,0.104c0.866,0.015,1.737,0.265,2.59,0.474
		c0.726,0.18,1.549,1.172,1.956-0.398c0.038-0.149,0.755-0.174,1.156-0.174c5.764-0.011,11.525-0.013,17.289-0.002
		c0.61,0.002,1.339-0.187,1.482,0.796c0.066,0.459,0.414,0.252,0.668,0.123c2.141-1.088,4.457-0.907,6.743-0.923
		c2.411-0.016,4.821-0.014,7.232,0.006c0.602,0.003,1.337-0.227,1.516,0.747c0.104,0.562,0.494,0.35,0.785,0.146
		c1.454-1.013,3.113-0.908,4.761-0.903c2.587,0.009,5.178,0.073,7.762-0.026c1.415-0.054,2.011,0.311,1.919,1.837
		c-0.122,2.051-0.021,4.114-0.032,6.172c-0.012,1.992,0.15,3.902,0.76,5.871c1.781,5.76-1.787,10.764-7.797,11.058
		c-3.639,0.18-7.29,0.075-10.935,0.094c-0.234,0.002-0.615,0.051-0.68-0.063c-0.989-1.757-2.174-0.303-3.268-0.223
		c-1.287,0.094-2.575,0.273-3.862,0.277c-10.173,0.022-20.347-0.015-30.52,0.045c-1.419,0.009-2.049-0.287-1.879-1.821
		c0.13-1.161,0.023-2.351,0.023-3.525c0-0.486-0.002-1.022-0.665-1.007c-0.691,0.016-0.598,0.603-0.603,1.056
		c-0.015,1.353-0.05,2.707,0.005,4.057c0.037,0.924-0.316,1.232-1.226,1.22c-2.881-0.038-5.763-0.041-8.644,0
		c-0.935,0.015-1.225-0.339-1.188-1.241c0.06-1.408,0.007-2.82,0.019-4.232c0.004-0.649,0.032-1.128-0.936-0.853
		c-1.531,0.434-3.13,0.543-4.721,0.459c-0.952-0.05-1.279,0.349-1.176,1.232c0.007,0.058,0.003,0.119-0.001,0.177
		c-0.097,1.337,0.571,3.048-0.288,3.919c-0.932,0.943-2.675,0.27-4.061,0.313c-2.115,0.067-4.248-0.142-6.347,0.061
		c-2.226,0.218-3.88-0.404-5.028-2.326c-0.723-1.212-1.495-1.277-2.32-0.096c-1.413,2.026-3.344,2.509-5.768,2.435
		c-5.522-0.175-11.054-0.091-16.581-0.028c-1.239,0.014-1.606-0.356-1.582-1.584C47.337,112.271,47.291,108.623,47.291,104.978z"/>
	<path fill-rule="evenodd" clip-rule="evenodd" fill="#306FC4" d="M135.863,83.109c0-4.443,0.073-8.889-0.038-13.328
		c-0.04-1.627,0.331-2.052,2.063-2.23c3.157-0.325,4.936,0.824,6.25,3.632c1.261,2.695,2.995,5.168,4.529,7.755
		c0.63-0.342,0.366-0.872,0.37-1.281c0.028-2.823,0.075-5.647-0.012-8.468c-0.04-1.27,0.421-1.69,1.617-1.554
		c0.522,0.059,1.06,0.04,1.586,0.007c0.761-0.049,1.021,0.278,1.018,1.03c-0.021,4.94-0.009,9.88-0.016,14.819
		c-0.001,0.39,0.113,0.968-0.429,1.013c-1.169,0.096-2.365-0.063-3.519,0.106c-1.603,0.235-1.968-0.958-2.56-1.931
		c-2.097-3.453-4.185-6.912-6.322-10.447c-0.574,0.497-0.371,1.054-0.376,1.527c-0.036,3.176-0.066,6.351-0.04,9.526
		c0.007,0.968-0.286,1.403-1.31,1.339c-1.112-0.069-2.243-0.129-3.348-0.016c-2.418,0.248-4.438,0-4.856-2.982
		c-0.086-0.616-0.565-0.78-1.177-0.773c-2.233,0.028-4.471,0.059-6.703-0.012c-0.945-0.031-1.172,0.522-1.443,1.201
		c-1.101,2.751-1.108,2.758-4.053,2.742c-1.642-0.01-3.293,0.052-4.895-0.453c-1.842-0.582-3.276-1.692-3.979-3.484
		c-1.326-3.387-1.23-6.781,0.382-10.076c1.137-2.324,3.2-3.168,5.619-3.331c1.113-0.075,2.247,0.075,3.348-0.063
		c1.682-0.211,2.273,0.331,2.148,2.083c-0.088,1.2-0.35,1.735-1.597,1.575c-0.521-0.067-1.058-0.014-1.587-0.008
		c-4.546,0.052-6.864,4.178-4.634,8.243c0.79,1.439,3.443,2.419,4.96,1.846c0.588-0.223,0.645-0.794,0.841-1.258
		c1.485-3.514,3.012-7.011,4.401-10.563c0.476-1.211,1.054-1.708,2.413-1.688c4.45,0.067,4.443,0.012,6.179,4.194
		c1.395,3.361,2.804,6.715,4.216,10.069c0.191,0.453,0.44,0.883,0.663,1.323C135.672,83.165,135.768,83.137,135.863,83.109z"/>
	<path fill-rule="evenodd" clip-rule="evenodd" fill="#306FC4" d="M58.38,72.028c-1.63,3.683-3.331,7.337-4.854,11.064
		c-0.53,1.299-1.296,1.483-2.533,1.541c-1.346,0.063-1.994-0.404-2.484-1.605c-1.287-3.151-2.673-6.262-4.051-9.375
		c-0.222-0.502-0.311-1.112-1.108-1.677c0,3.197,0,6.154,0,9.111c0,3.495,0,3.495-3.541,3.495c-0.47,0-0.952-0.064-1.41,0.01
		c-2.366,0.388-4.106-0.223-4.713-2.794c-0.177-0.75-0.701-0.968-1.454-0.951c-1.764,0.045-3.539,0.131-5.29-0.021
		c-1.534-0.13-2.37,0.371-2.884,1.827c-0.277,0.783-0.37,1.837-1.689,1.95c-3.467,0.297-3.563,0.217-2.215-2.986
		c1.821-4.327,3.665-8.646,5.452-12.987c0.357-0.866,0.784-1.245,1.793-1.257c4.824-0.058,4.828-0.097,6.724,4.404
		c1.563,3.71,3.114,7.426,5.065,11.078c0-2.07,0-4.14,0-6.209c0-1.47-0.049-2.943,0.014-4.411c0.066-1.563-0.727-3.813,0.323-4.527
		c1.417-0.965,3.629-0.223,5.498-0.304c0.8-0.035,0.934,0.598,1.167,1.111c1.341,2.937,2.665,5.881,3.997,8.821
		c0.26,0.576,0.533,1.144,0.92,1.974c1.531-3.663,3.008-7.046,4.346-10.484c0.438-1.124,1-1.551,2.193-1.449
		c1.284,0.111,2.588,0.075,3.878,0.01c0.948-0.047,1.203,0.344,1.198,1.231c-0.028,4.881-0.03,9.762,0.004,14.643
		c0.007,0.963-0.257,1.332-1.29,1.348c-2.675,0.042-2.675,0.094-2.675-2.62c0-3.288,0-6.575,0-9.863
		C58.637,72.093,58.509,72.06,58.38,72.028z"/>
	<path fill-rule="evenodd" clip-rule="evenodd" fill="#306FC4" d="M95.931,76.413c1.972,1.563,3.22,5.441,2.27,7.597
		c-0.529,1.201-1.78,0.376-2.689,0.548c-0.705,0.134-0.827-0.348-0.89-0.965c-0.534-5.203-0.545-5.215-5.712-5.196
		c-2.723,0.011-2.333-0.352-2.375,2.295c-0.01,0.588-0.075,1.188,0.012,1.762c0.249,1.644-0.285,2.199-2.053,2.201
		c-1.795,0-2.267-0.479-2.211-2.26c0.138-4.407,0.09-8.821,0.017-13.231c-0.021-1.312,0.226-1.864,1.705-1.799
		c2.934,0.127,5.879,0.03,8.819,0.043c3.237,0.014,4.735,0.825,5.44,2.911C99.016,72.547,98.259,74.523,95.931,76.413z"/>
	<path fill-rule="evenodd" clip-rule="evenodd" fill="#306FC4" d="M65.922,76.091c0-2.468,0.037-4.937-0.019-7.403
		c-0.023-0.993,0.301-1.318,1.303-1.304c3.702,0.049,7.406,0.097,11.104-0.017c1.588-0.049,1.335,0.901,1.322,1.806
		c-0.012,0.875,0.345,1.94-1.263,1.875c-2.346-0.095-4.702,0.038-7.049-0.044c-1.416-0.049-1.25,0.818-1.281,1.719
		c-0.033,0.939,0.071,1.568,1.289,1.528c2.289-0.076,4.584,0.04,6.873-0.04c1.453-0.051,1.238,0.877,1.226,1.742
		c-0.012,0.835,0.297,1.8-1.199,1.738c-2.288-0.094-4.586,0.058-6.872-0.053c-1.411-0.068-1.347,0.742-1.302,1.662
		c0.042,0.871-0.347,1.937,1.268,1.867c2.346-0.099,4.703,0.054,7.048-0.05c1.62-0.071,1.242,0.994,1.264,1.863
		c0.023,0.916,0.247,1.872-1.31,1.833c-3.699-0.089-7.403-0.056-11.104-0.01c-0.996,0.012-1.335-0.317-1.314-1.311
		C65.958,81.027,65.922,78.558,65.922,76.091z"/>
	<path fill-rule="evenodd" clip-rule="evenodd" fill="#3270C5" d="M105.409,76.039c-0.001,2.411-0.031,4.823,0.015,7.233
		c0.018,0.991-0.346,1.308-1.335,1.335c-2.824,0.08-2.824,0.124-2.824-2.625c0-4.353,0.047-8.704-0.028-13.054
		c-0.021-1.262,0.374-1.602,1.592-1.551c2.971,0.125,2.54-0.352,2.577,2.488C105.432,71.923,105.41,73.98,105.409,76.039z"/>
	<path fill-rule="evenodd" clip-rule="evenodd" fill="#306FC4" d="M51.437,105.505c0-2.41,0.032-4.821-0.015-7.232
		c-0.02-1.005,0.223-1.49,1.366-1.479c4.527,0.053,9.055,0.042,13.583,0.006c0.801-0.007,1.311,0.323,1.803,0.877
		c1.21,1.361,2.487,2.668,3.665,4.056c0.621,0.732,1.091,0.739,1.634-0.009c0.068-0.095,0.174-0.166,0.234-0.264
		c2.488-4.058,6.104-5.325,10.731-4.699c2.721,0.369,5.522-0.141,8.273,0.225c3.064,0.409,4.715,1.957,4.8,4.432
		c0.117,3.443-1.241,5.246-4.451,5.952c-2.039,0.449-4.103,0.251-6.153,0.24c-1.038-0.005-1.525,0.227-1.413,1.363
		c0.092,0.932-0.098,1.898,0.043,2.817c0.298,1.929-0.611,2.079-2.3,2.286c-4.218,0.517-7.396-0.712-9.554-4.419
		c-0.703-1.206-1.499-1.332-2.297-0.092c-2.497,3.882-6.053,5.035-10.521,4.484c-2.549-0.313-5.17-0.122-7.754-0.027
		c-1.277,0.045-1.773-0.265-1.705-1.639C51.52,110.096,51.437,107.8,51.437,105.505z"/>
	<path fill-rule="evenodd" clip-rule="evenodd" fill="#306FC4" d="M113.01,105.894c2.333,1.439,3.573,5.185,2.715,7.58
		c-0.157,0.436-0.43,0.503-0.791,0.51c-0.529,0.011-1.068-0.061-1.585,0.023c-1.498,0.241-2.011-0.38-1.803-1.828
		c0.083-0.575,0.025-1.178-0.038-1.761c-0.231-2.111-0.943-2.769-3.063-2.773c-1.579-0.005-3.613-0.522-4.615,0.254
		c-1.07,0.834-0.386,2.973-0.319,4.521c0.062,1.421-0.488,1.636-1.721,1.601c-2.529-0.071-2.531-0.009-2.531-2.515
		c0-4.467,0.032-8.935-0.022-13.402c-0.012-1.112,0.256-1.553,1.454-1.52c2.995,0.083,5.995,0.056,8.992,0.038
		c2.413-0.013,4.735,0.313,5.688,2.9C116.318,102.093,115.407,104.235,113.01,105.894z"/>
	<path fill-rule="evenodd" clip-rule="evenodd" fill="#306FC4" d="M118.197,105.284c0-2.412,0.034-4.823-0.016-7.232
		c-0.021-0.993,0.167-1.487,1.331-1.467c3.704,0.066,7.41,0.082,11.113-0.003c1.57-0.037,1.308,0.941,1.303,1.854
		c-0.007,0.895,0.302,1.916-1.294,1.844c-2.347-0.108-4.705,0.045-7.053-0.055c-1.456-0.061-1.217,0.847-1.261,1.712
		c-0.044,0.926,0.036,1.566,1.276,1.517c2.23-0.093,4.473,0.067,6.699-0.058c1.493-0.085,1.435,0.738,1.39,1.739
		c-0.04,0.909,0.254,1.891-1.33,1.799c-2.227-0.127-4.471,0.05-6.699-0.062c-1.38-0.069-1.367,0.685-1.333,1.637
		c0.031,0.921-0.236,1.917,1.322,1.854c2.289-0.094,4.589,0.066,6.877-0.053c1.668-0.087,1.388,0.963,1.414,1.941
		c0.024,0.974,0.143,1.816-1.369,1.774c-3.702-0.103-7.409-0.068-11.112-0.014c-1.029,0.016-1.298-0.354-1.276-1.321
		C118.234,110.223,118.197,107.753,118.197,105.284z"/>
	<path fill-rule="evenodd" clip-rule="evenodd" fill="#306FC4" d="M139.341,113.994c-1.058,0-2.128-0.101-3.171,0.022
		c-1.513,0.182-1.848-0.423-1.851-1.857c-0.005-1.477,0.432-1.941,1.895-1.849c1.933,0.121,3.877,0.024,5.816,0.027
		c1.226,0.002,2.337-0.259,2.338-1.748c0.002-1.382-1.032-1.646-2.2-1.706c-1.581-0.084-3.176-0.124-4.717-0.549
		c-2.448-0.674-3.591-2.211-3.585-4.76c0.006-2.438,1.252-4.316,3.536-4.875c3.235-0.792,6.553-0.211,9.83-0.34
		c0.561-0.022,0.594,0.385,0.656,0.831c0.429,3.089,0.213,3.341-2.949,3.345c-1.704,0-3.409,0.003-5.113,0.012
		c-0.863,0.004-1.728,0.071-1.757,1.225c-0.027,1.14,0.799,1.523,1.726,1.604c1.168,0.103,2.351,0.024,3.522,0.091
		c3.54,0.198,5.22,1.821,5.28,5.055c0.061,3.158-1.668,5.073-5.028,5.4c-1.398,0.136-2.818,0.022-4.229,0.022
		C139.341,113.961,139.341,113.979,139.341,113.994z"/>
	<path fill-rule="evenodd" clip-rule="evenodd" fill="#306FC4" d="M158.703,96.344c1.423,0,2.604,0.076,3.771-0.021
		c1.122-0.094,1.507,0.336,1.339,1.392c-0.01,0.058,0,0.118-0.001,0.178c-0.054,3.156,0.385,2.585-2.556,2.638
		c-1.879,0.032-3.76,0.032-5.639,0.016c-0.903-0.009-1.485,0.367-1.602,1.268c-0.127,0.992,0.608,1.422,1.373,1.511
		c1.277,0.146,2.581,0.049,3.868,0.134c4.025,0.269,6.469,3.522,5.207,6.975c-0.908,2.485-2.996,3.389-5.412,3.516
		c-2.52,0.133-5.052-0.007-7.576,0.061c-1.713,0.048-1.039-1.182-1.114-1.958c-0.08-0.84-0.275-1.792,1.197-1.73
		c2.169,0.09,4.347,0.024,6.52,0.016c1.152-0.004,2.18-0.265,2.218-1.676c0.036-1.406-0.934-1.695-2.115-1.775
		c-1.521-0.103-3.061-0.178-4.546-0.493c-2.534-0.536-3.703-2.044-3.81-4.578c-0.1-2.35,1.149-4.219,3.363-5.039
		C155.069,96.077,157.028,96.444,158.703,96.344z"/>
	<path fill-rule="evenodd" clip-rule="evenodd" fill="#FAFBFD" d="M126.026,70.378c0.881,2.228,1.587,4.058,2.329,5.873
		c0.357,0.875-0.088,0.939-0.798,0.991c-4.653,0.336-4.654,0.348-2.854-3.864C125.068,72.522,125.453,71.674,126.026,70.378z"/>
	<path fill-rule="evenodd" clip-rule="evenodd" fill="#FAFBFD" d="M29.098,70.372c0.88,2.205,1.603,4.027,2.333,5.847
		c0.313,0.775,0.04,0.974-0.763,1.032c-4.409,0.314-4.408,0.337-2.785-3.795C28.241,72.547,28.6,71.639,29.098,70.372z"/>
	<path fill-rule="evenodd" clip-rule="evenodd" fill="#FCFDFD" d="M89.812,74.977c-0.469,0-0.949-0.064-1.406,0.011
		c-1.588,0.263-1.888-0.43-1.942-1.932c-0.064-1.787,0.554-2.24,2.188-2.056c1.275,0.145,2.579,0.03,3.863,0.121
		c1.072,0.075,1.765,0.653,1.697,1.819c-0.065,1.099-0.485,1.95-1.763,1.983c-0.879,0.022-1.758,0.005-2.637,0.005
		C89.812,74.944,89.812,74.96,89.812,74.977z"/>
	<path fill-rule="evenodd" clip-rule="evenodd" fill="#FEFEFE" d="M60.436,100.252c4.13-1.234,6.437,1.196,8.582,4.147
		c0.618,0.85,0.506,1.217-0.053,2.042c-2.244,3.316-5.147,4.893-9.196,4.127c-0.794-0.15-1.641-0.021-2.464-0.021
		c-1.984-0.003-2.892-1.377-2.152-3.2c0.259-0.639,0.77-0.427,1.187-0.432c2.173-0.026,4.353-0.101,6.521,0.018
		c1.519,0.082,1.36-0.813,1.373-1.781c0.013-0.999,0.089-1.839-1.399-1.753c-2.108,0.12-4.234-0.053-6.343,0.061
		c-1.297,0.068-1.383-0.536-1.39-1.559c-0.008-1.079,0.056-1.807,1.46-1.673C57.84,100.348,59.143,100.252,60.436,100.252z"/>
	<path fill-rule="evenodd" clip-rule="evenodd" fill="#FDFEFE" d="M81.229,98.733c0,4.654,0,8.908,0,13.631
		c-2.121-2.367-4.012-4.473-5.891-6.588c-0.3-0.34-0.097-0.649,0.16-0.923C77.325,102.902,79.152,100.95,81.229,98.733z"/>
	<path fill-rule="evenodd" clip-rule="evenodd" fill="#FBFCFD" d="M88.789,104.698c-0.117,0-0.234,0-0.353,0
		c-2.996,0-3.521-0.699-2.939-3.712c0.148-0.774,0.61-0.729,1.134-0.732c1.349-0.005,2.699-0.04,4.046,0.011
		c1.675,0.063,2.718,1.035,2.639,2.427c-0.094,1.633-1.269,1.938-2.592,1.997c-0.645,0.027-1.291,0.003-1.936,0.003
		C88.789,104.693,88.789,104.697,88.789,104.698z"/>
	<path fill-rule="evenodd" clip-rule="evenodd" fill="#FDFDFE" d="M107.155,104.453c-0.467,0-0.945-0.066-1.398,0.013
		c-1.737,0.306-2.145-0.449-2.098-2.099c0.04-1.397,0.303-2.016,1.826-1.861c1.388,0.14,2.799,0.015,4.196,0.07
		c1.003,0.038,1.651,0.521,1.619,1.637c-0.031,1.065-0.244,2.042-1.523,2.174c-0.865,0.091-1.747,0.018-2.622,0.018
		C107.155,104.42,107.155,104.438,107.155,104.453z"/>
</g>
</svg>
