<?xml version="1.0" encoding="utf-8"?>
<!-- Generator: Adobe Illustrator 25.2.0, SVG Export Plug-In . SVG Version: 6.00 Build 0)  -->
<svg version="1.1" id="Layer_1" xmlns="http://www.w3.org/2000/svg" xmlns:xlink="http://www.w3.org/1999/xlink" x="0px" y="0px"
	 viewBox="0 0 180 180" style="enable-background:new 0 0 180 180;" xml:space="preserve">
<style type="text/css">
	.st0{fill:#0AC18E;}
	.st1{fill:#FFFFFF;}
</style>
<g>
	<path class="st0" d="M85.2,94.5l5.6,20.9c6.4-1.7,25.9-3.4,24-17.4C111.5,85.7,91.6,92.8,85.2,94.5z"/>
	<path class="st0" d="M90,1.3C41,1.3,1.3,41,1.3,90c0,49,39.7,88.7,88.7,88.7S178.7,139,178.7,90C178.7,41,139,1.3,90,1.3z
		 M110.6,122.4l4.1,15.8l-9.5,2.5l-4.1-15.8c-2.5,0.7-5,1.3-7.6,1.9l4.1,15.9l-9.5,2.5L84,129.2c-2.2,0.6-19.2,4.9-19.2,4.9l-1-11.9
		c0,0,7.1-1.7,6.9-1.8c2.7-0.7,2.9-2.8,2.7-4.1L62.3,73.6c-0.9-1.8-2.7-3.8-6.6-2.7c0.1-0.2-6.9,1.8-6.9,1.8l-2.6-10.2
		c0,0,17.1-4.4,19.2-5l-4-15.6l9.5-2.5l4,15.5c2.5-0.7,5.1-1.3,7.6-1.9l-4-15.6L88,35l4,15.6c12.5-2.1,22.8,0.1,27.3,10.2
		c3,8,0.5,14.2-4.2,18.4c7.7,0.8,17,7.8,18.4,16.3C135.6,109.6,125.3,118.8,110.6,122.4z"/>
	<path class="st0" d="M103,69.5C99,58,83.3,64.5,78,65.8l5.1,19C88.4,83.4,105,82,103,69.5z"/>
	<path class="st1" d="M115.1,79.2c4.8-4.2,7.2-10.4,4.2-18.4c-4.5-10.1-14.7-12.3-27.3-10.2L88,35l-9.5,2.5l4,15.6
		c-2.5,0.6-5.1,1.2-7.6,1.9l-4-15.5l-9.5,2.5l4,15.6c-2,0.6-19.2,5-19.2,5l2.6,10.2c0,0,7-2,6.9-1.8c3.9-1,5.7,0.9,6.6,2.7
		l11.1,42.8c0.1,1.2-0.1,3.4-2.7,4.1c0.2,0.1-6.9,1.8-6.9,1.8l1,11.9c0,0,17-4.3,19.2-4.9l4.1,15.8l9.5-2.5l-4.1-15.9
		c2.6-0.6,5.2-1.2,7.6-1.9l4.1,15.8l9.5-2.5l-4.1-15.8c14.6-3.6,25-12.8,22.9-26.9C132.1,86.9,122.8,80,115.1,79.2z M83,84.8
		l-5.1-19c5.4-1.3,21-7.8,25.1,3.7C105,82,88.4,83.4,83,84.8z M90.8,115.4l-5.6-20.9c6.4-1.7,26.4-8.8,29.5,3.5
		C116.6,112,97.2,113.7,90.8,115.4z"/>
</g>
</svg>
