<?xml version="1.0" encoding="utf-8"?>
<!-- Generator: Adobe Illustrator 16.0.0, SVG Export Plug-In . SVG Version: 6.00 Build 0)  -->
<!DOCTYPE svg PUBLIC "-//W3C//DTD SVG 1.1//EN" "http://www.w3.org/Graphics/SVG/1.1/DTD/svg11.dtd">
<svg version="1.1" id="Layer_1" xmlns="http://www.w3.org/2000/svg" xmlns:xlink="http://www.w3.org/1999/xlink" x="0px" y="0px"
	 width="180px" height="180px" viewBox="0 0 180 180" enable-background="new 0 0 180 180" xml:space="preserve">
<g>
	<path fill-rule="evenodd" clip-rule="evenodd" fill="#FEB12A" d="M180.582,91.35c-0.807,0.913-1.567,1.874-2.427,2.735
		c-16.281,16.298-32.572,32.585-48.862,48.872c-2.871,2.87-4.119,2.859-7.037-0.056c-4.695-4.693-9.396-9.386-14.082-14.089
		c-2.161-2.168-2.16-3.857,0.014-6.034c10.051-10.062,20.109-20.113,30.162-30.173c1.991-1.991,1.991-2.637,0.003-4.626
		c-9.886-9.892-19.777-19.782-29.665-29.672c-2.837-2.836-2.841-4.212-0.018-7.038c4.694-4.697,9.386-9.396,14.088-14.085
		c2.226-2.219,3.849-2.24,6.033-0.056c16.751,16.741,33.497,33.487,50.233,50.241c0.57,0.571,1.041,1.24,1.558,1.864
		C180.582,89.939,180.582,90.645,180.582,91.35z"/>
	<path fill-rule="evenodd" clip-rule="evenodd" fill="#FED700" d="M0,89.233C0.806,88.32,1.567,87.36,2.426,86.5
		c16.322-16.341,32.656-32.67,48.987-49c2.702-2.702,4.042-2.694,6.787,0.047c4.699,4.693,9.397,9.386,14.085,14.089
		c2.314,2.323,2.315,3.958-0.02,6.297C62.257,67.954,52.239,77.964,42.225,87.98c-1.989,1.991-1.989,2.631,0,4.62
		c9.931,9.933,19.865,19.861,29.794,29.795c2.664,2.666,2.669,4.149,0.022,6.799c-4.734,4.74-9.468,9.48-14.214,14.21
		c-2.225,2.217-3.853,2.23-6.036,0.05c-16.75-16.743-33.497-33.49-50.235-50.245C0.986,92.64,0.516,91.971,0,91.35
		C0,90.645,0,89.939,0,89.233z"/>
	<path fill-rule="evenodd" clip-rule="evenodd" fill="#FED700" d="M90.32,142.178c1.112-0.181,1.913,0.396,2.635,1.117
		c5.106,5.098,10.223,10.188,15.303,15.312c1.789,1.806,1.829,3.6,0.055,5.396c-5.11,5.177-10.27,10.305-15.428,15.435
		c-0.447,0.446-1.021,0.766-1.535,1.145c-0.353,0-0.705,0-1.058,0c-0.605-0.676-0.569-1.515-0.569-2.332
		c-0.013-11.252-0.013-22.504,0.002-33.755C89.725,143.681,89.675,142.835,90.32,142.178z"/>
	<path fill-rule="evenodd" clip-rule="evenodd" fill="#FED700" d="M91.35,0c0.946,0.593,1.763,1.332,2.55,2.122
		c4.551,4.573,9.121,9.128,13.68,13.693c2.705,2.707,2.69,4.164-0.058,6.913c-4.728,4.729-9.455,9.459-14.186,14.185
		c-0.835,0.833-1.669,1.686-3.015,1.489c-0.646-0.656-0.596-1.5-0.596-2.316C89.71,24.835,89.71,13.583,89.723,2.333
		c0-0.817-0.036-1.656,0.569-2.333C90.645,0,90.997,0,91.35,0z"/>
	<path fill-rule="evenodd" clip-rule="evenodd" fill="#FEF66E" d="M90.32,142.178c-0.01,12.803-0.02,25.604-0.028,38.404
		c-0.353,0-0.706,0-1.058,0c-1.663-1.221-3.015-2.771-4.466-4.214c-4.125-4.1-8.238-8.213-12.339-12.336
		c-1.778-1.79-1.783-3.74,0.01-5.542c4.971-5,9.963-9.978,14.955-14.956C88.196,142.733,89.08,142.058,90.32,142.178z"/>
	<path fill-rule="evenodd" clip-rule="evenodd" fill="#FEF66E" d="M90.292,0c0.009,12.8,0.019,25.602,0.029,38.402
		c-1.24,0.121-2.125-0.553-2.928-1.352c-4.949-4.936-9.905-9.865-14.822-14.832c-2.007-2.028-1.982-3.824-0.016-5.796
		c4.978-4.992,9.963-9.975,14.957-14.949C88.045,0.942,88.657,0.489,89.234,0C89.586,0,89.939,0,90.292,0z"/>
	<path fill-rule="evenodd" clip-rule="evenodd" fill="#FED700" d="M90.314,71.277c1.088-0.204,1.899,0.23,2.659,0.995
		c5.091,5.122,10.221,10.205,15.306,15.332c1.794,1.807,1.786,3.571-0.006,5.376c-5.088,5.125-10.212,10.214-15.309,15.33
		c-0.748,0.751-1.544,1.256-2.65,0.994c-0.637-0.659-0.589-1.502-0.589-2.317c-0.015-11.131-0.015-22.26,0-33.391
		C89.725,72.782,89.678,71.937,90.314,71.277z"/>
	<path fill-rule="evenodd" clip-rule="evenodd" fill="#FEF66E" d="M90.314,71.277c0,12.676,0,25.352,0,38.027
		c-1.118,0.286-1.92-0.277-2.649-1.005c-5.144-5.138-10.297-10.266-15.414-15.431c-1.558-1.574-1.558-3.581,0-5.154
		c5.116-5.166,10.271-10.293,15.414-15.431C88.394,71.556,89.194,70.989,90.314,71.277z"/>
</g>
</svg>
