<?xml version="1.0" encoding="utf-8"?>
<!-- Generator: Adobe Illustrator 16.0.0, SVG Export Plug-In . SVG Version: 6.00 Build 0)  -->
<!DOCTYPE svg PUBLIC "-//W3C//DTD SVG 1.1//EN" "http://www.w3.org/Graphics/SVG/1.1/DTD/svg11.dtd">
<svg version="1.1" id="Layer_1" xmlns="http://www.w3.org/2000/svg" xmlns:xlink="http://www.w3.org/1999/xlink" x="0px" y="0px"
	 width="180px" height="180px" viewBox="0 0 180 180" enable-background="new 0 0 180 180" xml:space="preserve">
<g>
	<path fill-rule="evenodd" clip-rule="evenodd" fill="#F69825" d="M96.641,179.477c-4.078,0-8.155,0-12.233,0
		c-3.045-0.33-6.117-0.264-9.162-0.58c-6.061-0.627-11.832-2.402-17.491-4.566c-9.981-3.816-19.112-9.121-27.066-16.258
		c-5.892-5.285-11.288-11.074-15.669-17.73c-6.466-9.82-11.058-20.443-13.443-31.969c-0.729-3.523-0.724-7.145-0.887-10.736
		c-0.03-0.682,0.198-1.389-0.167-2.045c0-3.729,0-7.456,0-11.184C0.83,81.362,0.779,78.29,1.12,75.25
		c0.776-6.93,2.855-13.518,5.517-19.932c5.024-12.11,12.406-22.559,22.004-31.492C36.125,16.86,44.566,11.419,53.89,7.277
		c5.229-2.323,10.641-4.042,16.196-5.376c3.814-0.917,7.708-0.893,11.576-1.205c0.451-0.037,0.932,0.148,1.348-0.172
		c4.543,0,9.087,0,13.63,0c2.695,0.344,5.418,0.323,8.119,0.581c5.721,0.546,11.164,2.23,16.516,4.19
		c10.313,3.777,19.707,9.204,27.904,16.514c7.451,6.647,13.943,14.143,18.914,22.89c4.484,7.893,7.84,16.203,9.926,25.048
		c0.941,3.994,0.973,8.05,1.285,12.092c0.064,0.856-0.197,1.733,0.172,2.568c0,4.078,0,8.155,0,12.233
		c-0.352,2.697-0.291,5.426-0.598,8.121c-0.787,6.939-2.848,13.539-5.533,19.955c-4.855,11.594-11.83,21.695-20.926,30.422
		c-12.531,12.021-27.313,19.645-44.199,23.313c-3.236,0.703-6.582,0.621-9.883,0.855C97.773,179.348,97.176,179.127,96.641,179.477z
		"/>
	<path fill-rule="evenodd" clip-rule="evenodd" fill="#FFFFFF" d="M129.57,76.407c0.004-1.309,0.008-2.617,0.012-3.926
		c-0.529-4.585-2.865-8.126-6.377-10.974c-3.549-2.878-7.666-4.724-11.896-6.3c-1.242-0.462-1.441-0.908-1.113-2.131
		c1.172-4.377,2.172-8.803,3.34-13.183c0.311-1.164,0.01-1.531-1.088-1.768c-2.385-0.513-4.764-1.079-7.104-1.766
		c-1.137-0.334-1.535-0.078-1.801,1.049c-0.998,4.246-2.133,8.459-3.115,12.709c-0.299,1.296-0.908,1.563-2.086,1.269
		c-1.516-0.378-3.053-0.661-4.58-0.994c-1.105-0.242-1.586-0.679-1.215-2.017c1.162-4.191,2.061-8.455,3.246-12.639
		c0.393-1.381-0.117-1.752-1.207-2.015c-2.234-0.539-4.516-0.942-6.688-1.672c-1.423-0.479-1.801-0.041-2.097,1.222
		c-1.026,4.357-2.146,8.692-3.194,13.043c-0.242,1.008-0.528,1.431-1.754,1.106c-5.563-1.476-11.171-2.784-16.744-4.229
		c-1.315-0.341-1.847-0.023-2.124,1.31c-0.531,2.56-1.176,5.101-1.876,7.621c-0.293,1.053-0.059,1.423,1.014,1.655
		c2.27,0.491,4.542,1.032,6.747,1.756c2.856,0.938,4.142,3.321,3.431,6.183c-3.519,14.159-7.059,28.313-10.613,42.461
		c-0.707,2.811-2.199,3.691-5.047,3.051c-1.758-0.393-3.526-0.777-5.242-1.318c-1.12-0.352-1.665-0.143-2.117,0.977
		c-1.154,2.857-2.385,5.688-3.692,8.479c-0.591,1.262-0.233,1.656,1.021,1.959c5.592,1.355,11.161,2.807,16.746,4.193
		c0.999,0.248,1.401,0.559,1.08,1.748c-1.182,4.379-2.17,8.811-3.341,13.191c-0.345,1.291-0.183,1.895,1.22,2.182
		c2.277,0.465,4.539,1.039,6.766,1.705c1.292,0.387,1.712-0.047,1.994-1.254c1.018-4.359,2.161-8.689,3.182-13.049
		c0.272-1.158,0.667-1.541,1.888-1.125c1.592,0.539,3.247,0.9,4.891,1.275c0.992,0.227,1.26,0.57,0.963,1.678
		c-1.197,4.475-2.187,9.002-3.385,13.473c-0.305,1.139,0.033,1.402,0.998,1.623c2.355,0.543,4.717,1.084,7.029,1.783
		c1.319,0.4,1.739-0.061,2.023-1.252c1.053-4.408,2.195-8.795,3.26-13.199c0.252-1.039,0.492-1.488,1.824-1.252
		c5.367,0.957,10.768,1.684,16.248,0.848c5.764-0.881,10.596-3.32,13.918-8.256c2.328-3.457,3.738-7.307,4.35-11.422
		c0.891-6.002-0.441-11.209-5.369-15.227c-1.449-1.182-3.086-2.096-4.652-3.369C125.201,89.503,128.662,83.972,129.57,76.407z
		 M99.957,115.229c-1.871,0.488-3.764,0.711-5.189,0.584c-6.119,0.07-11.433-1.568-16.806-2.869
		c-0.908-0.219-0.996-0.867-0.809-1.613c1.595-6.332,3.218-12.656,4.779-18.996c0.2-0.814,0.516-1.074,1.301-0.906
		c5.295,1.135,10.58,2.346,15.501,4.666c3.033,1.43,6.004,3.156,7.533,6.332C108.629,107.336,106.348,113.559,99.957,115.229z
		 M103.186,83.315c-1.432,0.318-2.873,0.412-4.336,0.364c-4.502-0.037-8.809-1.192-13.125-2.303
		c-0.743-0.191-0.973-0.495-0.749-1.355c1.486-5.706,2.896-11.433,4.315-17.156c0.16-0.642,0.179-1.292,1.163-1.036
		c4.501,1.171,9.104,2.038,13.278,4.207c2.318,1.205,4.398,2.672,5.674,5.146C111.559,75.352,109.424,81.932,103.186,83.315z"/>
</g>
</svg>
