<?xml version="1.0" encoding="utf-8"?>
<!-- Generator: Adobe Illustrator 16.0.0, SVG Export Plug-In . SVG Version: 6.00 Build 0)  -->
<!DOCTYPE svg PUBLIC "-//W3C//DTD SVG 1.1//EN" "http://www.w3.org/Graphics/SVG/1.1/DTD/svg11.dtd">
<svg version="1.1" id="Layer_1" xmlns="http://www.w3.org/2000/svg" xmlns:xlink="http://www.w3.org/1999/xlink" x="0px" y="0px"
	 width="180px" height="180px" viewBox="0 0 180 180" enable-background="new 0 0 180 180" xml:space="preserve">
<g>
	<path fill-rule="evenodd" clip-rule="evenodd" fill="#33B8EE" d="M161.133,131.525c-0.005,2.901,0.007,5.801-0.02,8.702
		c-0.046,5.114-3.921,9.027-9.05,9.03c-47.276,0.015-94.553,0.013-141.83,0.002c-5.249-0.002-9.125-3.893-9.127-9.13
		C1.094,112.665,1.096,85.2,1.105,57.735c0.002-5.361,3.868-9.201,9.22-9.219c2.839-0.01,5.678-0.011,8.517-0.017
		c0.965-0.762,2.113-0.576,3.208-0.577c16.17-0.012,32.34-0.008,48.51-0.008c26.786,0,53.572,0.013,80.358-0.018
		c3.036-0.003,5.726,0.66,7.926,2.88c2.033,2.051,2.887,4.506,2.882,7.365c-0.022,11.356-0.009,22.713-0.009,34.069
		c0.001,12.034,0.006,24.07-0.009,36.104C161.709,129.411,161.896,130.56,161.133,131.525z"/>
	<path fill-rule="evenodd" clip-rule="evenodd" fill="#2FA8D9" d="M161.133,131.525c-0.005-24.508-0.088-49.016,0.048-73.522
		c0.029-5.097-4.448-9.562-9.556-9.55c-44.26,0.102-88.521,0.052-132.783,0.046c0.013-2.901,0.015-5.802,0.042-8.703
		c0.048-5.146,3.901-9.056,9.011-9.057c47.35-0.011,94.7-0.012,142.05,0.001c5.009,0.001,8.938,3.912,8.941,8.929
		c0.021,27.596,0.02,55.189,0.002,82.786c-0.004,5.112-3.902,8.963-9.054,9.025C166.936,131.517,164.034,131.513,161.133,131.525z"
		/>
	<path fill-rule="evenodd" clip-rule="evenodd" fill="#FEBB42" d="M39.619,98.831c-5.104,0.014-10.212,0.144-15.313,0.011
		c-4.596-0.12-8.298-4.071-8.379-8.677c-0.036-2.028,0.031-4.058,0.051-6.087c0.76-0.711,1.72-0.567,2.625-0.573
		c3.625-0.024,7.251,0.019,10.876-0.021c2.838-0.029,3.604-0.792,3.627-3.639c0.037-4.609-0.002-9.218,0.02-13.826
		c0.004-0.906-0.139-1.865,0.574-2.625c5.105-0.018,10.213-0.142,15.314-0.02c4.501,0.107,8.243,4.008,8.372,8.5
		c0.06,2.089-0.025,4.181-0.045,6.271c-0.76,0.712-1.72,0.568-2.625,0.573c-3.626,0.025-7.252-0.018-10.877,0.02
		c-2.838,0.03-3.604,0.792-3.626,3.64c-0.037,4.608,0.002,9.218-0.021,13.827C40.188,97.111,40.331,98.07,39.619,98.831z"/>
	<path fill-rule="evenodd" clip-rule="evenodd" fill="#DAE8ED" d="M48.331,134.45c-9.681,0-19.361,0.007-29.041-0.005
		c-2.213-0.001-3.346-0.939-3.421-2.754c-0.073-1.737,0.94-2.944,2.672-3.147c0.426-0.05,0.862-0.02,1.293-0.02
		c19.114,0,38.228,0,57.341,0c0.432,0,0.871-0.043,1.293,0.021c1.625,0.244,2.528,1.211,2.625,2.844
		c0.093,1.584-1.012,2.884-2.614,3.031c-1.04,0.096-2.095,0.03-3.143,0.03C66.334,134.452,57.333,134.45,48.331,134.45z"/>
	<path fill-rule="evenodd" clip-rule="evenodd" fill="#DAE8ED" d="M126.857,69.258c-5.175,0-10.351,0.005-15.524-0.002
		c-2.466-0.003-3.603-0.944-3.604-2.938c0-1.983,1.17-2.979,3.592-2.981c10.473-0.009,20.945-0.009,31.418,0
		c2.306,0.002,3.608,1.143,3.556,3.049c-0.051,1.825-1.313,2.866-3.543,2.87C137.453,69.265,132.155,69.258,126.857,69.258z"/>
	<path fill-rule="evenodd" clip-rule="evenodd" fill="#E7AA3C" d="M33.7,63.394c-0.002,5.671,0.002,11.341-0.006,17.011
		c-0.003,2.695-0.972,3.664-3.663,3.669c-4.685,0.008-9.369,0.004-14.053,0.005c0-1.978,0-3.955,0-5.933
		c0.702-0.668,1.595-0.561,2.444-0.572c2.337-0.03,4.676-0.03,7.012-0.004c1.258,0.014,1.76-0.526,1.754-1.767
		c-0.013-3.261-0.023-6.521,0.007-9.78c0.008-0.907-0.138-1.867,0.571-2.629C29.744,63.394,31.722,63.394,33.7,63.394z"/>
	<path fill-rule="evenodd" clip-rule="evenodd" fill="#E7AA3C" d="M39.619,98.831c0.001-5.672-0.002-11.343,0.006-17.014
		c0.004-2.694,0.971-3.662,3.663-3.667c4.685-0.008,9.369-0.004,14.053-0.006c0,1.979,0,3.956,0,5.934
		c-0.703,0.667-1.596,0.561-2.445,0.571c-2.336,0.029-4.675,0.029-7.012,0.004c-1.258-0.014-1.759,0.526-1.754,1.767
		c0.013,3.261,0.022,6.521-0.006,9.78c-0.009,0.907,0.137,1.866-0.572,2.631C43.575,98.831,41.597,98.831,39.619,98.831z"/>
	<path fill-rule="evenodd" clip-rule="evenodd" fill="#FEBB42" d="M27.767,63.394c0.001,4.365-0.039,8.73,0.028,13.095
		c0.02,1.282-0.375,1.716-1.673,1.685c-3.379-0.078-6.762-0.027-10.144-0.028c-0.019-2.149-0.122-4.301-0.038-6.446
		c0.171-4.374,3.924-8.107,8.33-8.344C25.432,63.292,26.601,63.377,27.767,63.394z"/>
	<path fill-rule="evenodd" clip-rule="evenodd" fill="#FEBB42" d="M45.552,98.831c0-4.367,0.039-8.732-0.027-13.096
		c-0.02-1.282,0.374-1.716,1.673-1.686c3.379,0.077,6.762,0.027,10.144,0.028c0.02,2.024,0.088,4.051,0.05,6.073
		c-0.086,4.677-3.855,8.521-8.528,8.721C47.762,98.919,46.656,98.847,45.552,98.831z"/>
	<path fill-rule="evenodd" clip-rule="evenodd" fill="#DAE8ED" d="M28.008,119.63c-2.893,0-5.786,0.02-8.68-0.005
		c-2.075-0.018-3.319-1.111-3.36-2.879c-0.041-1.771,1.34-3.024,3.44-3.032c5.725-0.018,11.45-0.017,17.175,0
		c2.031,0.006,3.297,1.138,3.331,2.899c0.035,1.825-1.274,3.001-3.411,3.014C33.671,119.645,30.84,119.632,28.008,119.63z"/>
	<path fill-rule="evenodd" clip-rule="evenodd" fill="#DAE8ED" d="M99.267,113.709c2.831-0.002,5.663-0.02,8.495,0.005
		c2.006,0.018,3.274,1.194,3.268,2.962c-0.005,1.762-1.279,2.941-3.286,2.947c-5.787,0.02-11.573,0.022-17.36-0.001
		c-2.05-0.008-3.299-1.166-3.299-2.937c0.001-1.71,1.343-2.948,3.319-2.969C93.356,113.685,96.312,113.709,99.267,113.709z"/>
	<path fill-rule="evenodd" clip-rule="evenodd" fill="#DAE8ED" d="M63.514,113.707c2.839,0,5.679-0.011,8.518,0.005
		c2.158,0.012,3.464,1.171,3.431,2.999c-0.03,1.768-1.298,2.908-3.334,2.914c-5.741,0.018-11.481,0.018-17.222-0.002
		c-2.091-0.006-3.333-1.102-3.376-2.875c-0.044-1.78,1.322-3.009,3.466-3.033C57.835,113.685,60.675,113.709,63.514,113.707z"/>
	<path fill-rule="evenodd" clip-rule="evenodd" fill="#DAE8ED" d="M134.815,113.707c2.777,0,5.555-0.011,8.332,0.005
		c2.158,0.012,3.465,1.169,3.434,2.997c-0.03,1.769-1.299,2.91-3.335,2.916c-5.74,0.018-11.479,0.018-17.219-0.002
		c-2.092-0.006-3.333-1.1-3.379-2.872c-0.045-1.779,1.324-3.012,3.464-3.036C129.014,113.685,131.915,113.709,134.815,113.707z"/>
</g>
</svg>
