<?xml version="1.0" encoding="utf-8"?>
<!-- Generator: Adobe Illustrator 16.0.0, SVG Export Plug-In . SVG Version: 6.00 Build 0)  -->
<!DOCTYPE svg PUBLIC "-//W3C//DTD SVG 1.1//EN" "http://www.w3.org/Graphics/SVG/1.1/DTD/svg11.dtd">
<svg version="1.1" id="Layer_1" xmlns="http://www.w3.org/2000/svg" xmlns:xlink="http://www.w3.org/1999/xlink" x="0px" y="0px"
	 width="180px" height="180px" viewBox="0 0 180 180" enable-background="new 0 0 180 180" xml:space="preserve">
<g>
	<path fill-rule="evenodd" clip-rule="evenodd" fill="#68788D" d="M90.362,0.667c-0.122,0.718,0.407,1.185,0.707,1.721
		c18.334,32.945,36.683,65.882,55.002,98.835c0.304,0.547,1.134,1.029,0.587,1.881c-0.672,0.016-1.23-0.309-1.807-0.588
		c-3.873-1.889-7.752-3.768-11.609-5.682c-9.649-4.791-19.357-9.46-29.011-14.242c-4.326-2.143-8.611-4.375-13.006-6.382
		c-0.771-0.352-1.677-0.647-1.774-1.733c-0.01-23.403-0.005-46.802-0.01-70.201c-0.001-1.118,0.146-2.198,0.582-3.232
		c-0.003-0.125-0.007-0.251-0.011-0.377C90.129,0.667,90.246,0.667,90.362,0.667z"/>
	<path fill-rule="evenodd" clip-rule="evenodd" fill="#708198" d="M90.023,1.043c-0.003,23.898-0.006,47.796-0.013,71.695
		c-0.001,0.806,0.135,1.638-0.355,2.373c-0.025,0.084-0.052,0.169-0.076,0.252c-0.469,0.653-1.214,0.887-1.885,1.218
		c-5.167,2.554-10.349,5.081-15.506,7.651c-12.143,6.05-24.381,11.91-36.505,17.998c-0.713,0.357-1.429,1.141-2.375,0.447
		c3.161-5.75,6.294-11.516,9.487-17.249C58.062,58.013,73.341,30.604,88.63,3.202C89.045,2.458,89.297,1.592,90.023,1.043z"/>
	<path fill-rule="evenodd" clip-rule="evenodd" fill="#31313B" d="M89.655,75.111c2.007,0.903,4.038,1.75,6.013,2.718
		c16.417,8.056,32.824,16.132,49.229,24.21c0.613,0.303,1.324,0.463,1.761,1.064c-8.885,4.383-17.767,8.773-26.654,13.15
		c-9.455,4.656-18.914,9.303-28.375,13.947c-0.407,0.199-0.846,0.338-1.271,0.504c-0.75-0.025-0.795-0.654-0.803-1.125
		c-0.028-1.742-0.297-3.465-0.227-5.221c0.163-4.057,0.044-8.117-0.062-12.176c-0.077-2.953,0.002-5.906-0.073-8.865
		c-0.13-5.045-0.002-10.102-0.064-15.154c-0.042-3.491-0.014-6.984-0.004-10.475c0.003-0.869-0.063-1.762,0.572-2.489L89.655,75.111
		z"/>
	<path fill-rule="evenodd" clip-rule="evenodd" fill="#3C3C47" d="M89.697,75.201c-0.012,5.126-0.22,10.263,0.039,15.375
		c0.166,3.281,0.128,6.602,0.046,9.828c-0.094,3.682,0.218,7.373,0.073,11.066c-0.146,3.748-0.021,7.594,0.075,11.393
		c0.053,2.057,0.091,4.135,0.091,6.203c0,0.559-0.194,1.18,0.336,1.639c-0.526,0.633-0.957,0.043-1.359-0.154
		c-18.224-8.961-36.44-17.939-54.655-26.918c-0.406-0.199-0.785-0.457-1.17-0.693c-0.021-0.014-0.015-0.105,0.008-0.146
		c0.027-0.047,0.085-0.076,0.129-0.115c0.574,0.107,0.996-0.262,1.454-0.486C47.276,96.02,59.782,89.831,72.3,83.669
		C78.086,80.821,83.897,78.022,89.697,75.201z"/>
	<path fill-rule="evenodd" clip-rule="evenodd" fill="#68788D" d="M90.359,137.023c7.09-3.488,14.175-6.982,21.27-10.459
		c8.613-4.223,17.23-8.434,25.854-12.635c0.502-0.246,0.956-0.658,1.799-0.615c-0.734,1.014-1.383,1.924-2.05,2.822
		c-12.951,17.426-25.908,34.848-38.855,52.277c-2.359,3.176-4.673,6.385-7.033,9.557c-0.378,0.506-0.605,1.199-1.346,1.363
		c-0.495-0.834-0.558-1.752-0.558-2.695c0.004-12.264-0.005-24.527,0.017-36.791C89.459,138.834,89.245,137.703,90.359,137.023z"/>
	<path fill-rule="evenodd" clip-rule="evenodd" fill="#708198" d="M90.359,137.023c-0.478,0.738-0.343,1.568-0.343,2.375
		c-0.009,13.313-0.013,26.623-0.019,39.936c-3.197-3.695-5.933-7.746-8.848-11.654c-13.155-17.639-26.265-35.313-39.388-52.975
		c-0.31-0.418-0.591-0.855-1.177-1.709c1.538,0.723,2.671,1.236,3.789,1.783c14.79,7.217,29.578,14.438,44.367,21.656
		C89.259,136.689,89.742,137.043,90.359,137.023z"/>
</g>
</svg>
