<?xml version="1.0" encoding="utf-8"?>
<!-- Generator: Adobe Illustrator 25.2.0, SVG Export Plug-In . SVG Version: 6.00 Build 0)  -->
<svg version="1.1" id="Layer_1" xmlns="http://www.w3.org/2000/svg" xmlns:xlink="http://www.w3.org/1999/xlink" x="0px" y="0px"
	 viewBox="0 0 180 180" style="enable-background:new 0 0 180 180;" xml:space="preserve">
<style type="text/css">
	.st0{fill:#E31337;}
</style>
<g id="Layer_2">
	<g id="Layer_1-2">
		<path class="st0" d="M127.9,99.8c0.4,0,0.8,0.4,0.7,0.9c0,0.1,0,0.2-0.1,0.3l-37.5,64.9c-0.1,0.2-0.4,0.4-0.7,0.4H67.5
			c-0.4,0-0.8-0.3-0.8-0.8c0-0.1,0-0.3,0.1-0.4l37.5-64.9c0.1-0.2,0.4-0.4,0.7-0.4H127.9z M105.6,81.2c-0.3,0-0.5-0.1-0.7-0.4
			l-38.2-66c-0.2-0.4-0.1-0.8,0.3-1c0.1-0.1,0.3-0.1,0.4-0.1h22.9c0.3,0,0.5,0.1,0.7,0.4l38.2,66c0.2,0.4,0.1,0.8-0.3,1
			c-0.1,0.1-0.3,0.1-0.4,0.1H105.6z"/>
		<path class="st0" d="M110.2,14.9c-0.2-0.4-0.1-0.8,0.3-1c0.1-0.1,0.3-0.1,0.4-0.1h23c0.3,0,0.5,0.1,0.7,0.4l43.7,75.5
			c0.1,0.2,0.1,0.5,0,0.8l-43.7,75.5c-0.1,0.2-0.4,0.4-0.7,0.4h-23c-0.4,0-0.8-0.3-0.8-0.7c0-0.1,0-0.3,0.1-0.4L153.7,90L110.2,14.9
			z M91.5,89.6c0.1,0.2,0.1,0.6,0,0.8l-43.9,75.5c-0.3,0.4-0.8,0.5-1.1,0.2c-0.1-0.1-0.2-0.1-0.2-0.2L1.8,90.4
			c-0.1-0.2-0.1-0.6,0-0.8l43.9-75.5c0.3-0.4,0.8-0.5,1.1-0.2c0.1,0.1,0.2,0.1,0.2,0.2L91.5,89.6z"/>
	</g>
</g>
</svg>
