<?xml version="1.0" encoding="utf-8"?>
<!-- Generator: Adobe Illustrator 16.0.0, SVG Export Plug-In . SVG Version: 6.00 Build 0)  -->
<!DOCTYPE svg PUBLIC "-//W3C//DTD SVG 1.1//EN" "http://www.w3.org/Graphics/SVG/1.1/DTD/svg11.dtd">
<svg version="1.1" id="Layer_1" xmlns="http://www.w3.org/2000/svg" xmlns:xlink="http://www.w3.org/1999/xlink" x="0px" y="0px"
	 width="180px" height="180px" viewBox="0 0 180 180" enable-background="new 0 0 180 180" xml:space="preserve">
<g>
	<path fill-rule="evenodd" clip-rule="evenodd" fill="#3949AA" d="M1.634,96.903c0-4.718,0-9.435,0-14.152
		c0.401-2.484,0.302-5.01,0.616-7.5c0.927-7.361,3.244-14.323,6.171-21.094c3.584-8.292,8.392-15.846,14.357-22.607
		c7.24-8.208,15.605-15.046,25.345-20.165c7.891-4.147,16.146-7.205,24.914-8.836c2.881-0.536,5.816-0.531,8.729-0.745
		c0.445-0.033,0.921,0.148,1.331-0.169c4.602,0,9.205,0,13.806,0c2.602,0.376,5.24,0.293,7.846,0.616
		c7.365,0.917,14.326,3.24,21.096,6.166c8.293,3.582,15.84,8.398,22.607,14.358c8.793,7.748,15.982,16.782,21.199,27.335
		c3.609,7.303,6.346,14.896,7.803,22.926c0.523,2.884,0.529,5.816,0.742,8.729c0.033,0.445-0.148,0.921,0.17,1.331
		c0,4.603,0,9.205,0,13.807c-0.389,2.921-0.293,5.884-0.711,8.798c-0.352,2.454-0.559,4.965-1.898,7.165
		c-1.361,0.728-1.984-0.338-2.662-1.15c-3.002-3.606-6.602-6.644-9.693-10.163c-0.152-0.172-0.355-0.288-0.547-0.413
		c-2.734-2.589-5.24-5.41-7.986-7.987c-2.215-2.17-4.369-4.398-6.574-6.577c-3.123-3.212-6.473-6.204-9.41-9.598
		c-0.264-0.304-0.598-0.54-0.941-0.753c-4.652-4.748-9.549-9.255-14-14.201c-0.344-0.384-0.746-0.711-1.188-0.984
		c-6.121-6.121-12.297-12.186-18.33-18.393c-0.25-0.258-0.512-0.446-0.844-0.557c-3.346-1.036-6.717-1.984-10.092-2.904
		c-1.924-0.524-2.08-0.446-2.637,1.51c-2.099,7.397-4.21,14.791-6.337,22.181c-1.604,5.57-3.206,11.14-4.752,16.725
		c-0.538,1.943-1.661,2.81-3.554,3.196c-8.373,1.708-16.751,3.389-25.122,5.11c-1.836,0.378-1.906,0.521-1.549,2.452
		c0.626,3.384,1.331,6.752,2.026,10.12c0.118,0.46,0.402,0.789,0.741,1.123c4.747,4.667,9.427,9.403,14.144,14.103
		c0.731,0.729,1.447,1.468,1.891,2.424c0.234,1.313-0.334,2.489-0.677,3.689c-1.72,6.016-3.398,12.043-5.155,18.048
		c-0.208,0.712-0.449,1.428-0.434,2.187c0.037,0.495,0.353,0.784,0.695,1.119c5.691,5.57,11.297,11.226,16.917,16.868
		c1.796,2.011,3.863,3.747,5.726,5.694c1.865,1.948,3.829,3.803,5.714,5.738c1.148,1.755,3.063,2.747,4.35,4.358
		c0.58,0.727,1.469,1.406,0.738,2.534c-3.107,0-6.213,0-9.32,0c-1.078-0.385-2.194-0.072-3.286-0.173
		c-10.917,0.204-21.067-2.838-30.889-7.291c-11.32-5.131-20.943-12.562-29.278-21.699c-4.31-4.724-7.97-9.945-11.102-15.522
		c-4.704-8.376-8.036-17.264-9.792-26.721c-0.535-2.882-0.53-5.814-0.742-8.725C1.771,97.789,1.951,97.313,1.634,96.903z"/>
	<path fill-rule="evenodd" clip-rule="evenodd" fill="#3949AA" d="M175.273,112.786c0.09,0.902-0.609,1.568-0.721,2.411
		c-1.328,2.83-3.67,4.819-5.814,6.965c-14.838,14.843-29.666,29.694-44.531,44.513c-2.832,2.82-5.367,6.003-8.996,7.931
		c-5.484,1.897-11.178,2.755-16.914,3.408c-0.471,0.053-1.049-0.228-1.395,0.352c-0.23,0-0.459,0-0.689,0
		c-0.18-1.371-1.283-2.089-2.127-2.985c-1.125-1.196-2.264-2.382-3.398-3.569c0.699-0.592,1.324-0.108,1.896,0.2
		c0.74,0.397,1.295,0.246,1.855-0.297c0.453-0.442,0.912-0.874,1.359-1.321c8.734-8.736,17.469-17.474,26.209-26.203
		c0.805-0.804,1.57-1.657,2.541-2.285c1.41-0.318,2.842-0.14,4.264-0.183c1.973-0.057,2.168-0.224,2.199-2.159
		c0.031-1.938-0.008-3.881,0.018-5.818c0.008-0.625-0.051-1.262,0.205-1.856c0.611-0.982,1.082-0.525,1.498,0.17
		c0.238,0.396,0.316,0.856,0.426,1.303c0.168,0.69,0.502,0.875,1.063,0.324c0.287-0.281,0.574-0.563,0.859-0.844
		c9.008-9.009,18.006-18.026,27.033-27.015c1.189-1.185,2.41-2.237,0.957-4.026c-0.242-0.3-0.25-0.766,0.109-1.102
		c3.705,3.507,7.453,6.972,10.709,10.918C174.283,112.093,174.514,112.748,175.273,112.786z"/>
	<path fill-rule="evenodd" clip-rule="evenodd" fill="#868FCB" d="M83.442,178.365c-0.01-0.098-0.027-0.197-0.053-0.293
		c1.183-0.081,2.373-0.243,3.504,0.293C85.742,178.365,84.592,178.365,83.442,178.365z"/>
	<path fill-rule="evenodd" clip-rule="evenodd" fill="#FEFEFE" d="M131.824,131.432c-0.02,3.158-0.088,6.316-0.033,9.475
		c0.02,1.11-0.264,1.507-1.424,1.47c-2.063-0.063-4.129,0.039-6.193,0.072c-0.563,0.562-1.262,0.755-2.033,0.755
		c-7.492-0.007-14.986,0.133-22.479-0.069c-11.565,0.202-23.131,0.041-34.697,0.093c-1.266,0.006-2.534,0.034-3.607-0.81
		c-0.344-0.645,0.011-1.229,0.178-1.814c2.052-7.218,4.119-14.43,6.175-21.646c0.092-0.324,0.126-0.667,0.187-1.001
		c-0.445-1.041-0.097-2.038,0.189-3.026c1.488-5.126,2.943-10.262,4.399-15.396c0.54-1.904,0.424-2.041-1.449-1.68
		c-5.745,1.104-11.478,2.272-17.212,3.43c-0.953,0.191-1.93,0.416-2.829-0.22c-0.878-4.212-1.755-8.424-2.636-12.636
		c-0.26-1.241,0.835-0.924,1.335-1.029c4.831-1.015,9.679-1.951,14.52-2.917c4.222-0.843,8.433-1.741,12.667-2.514
		c1.216-0.222,1.669-0.824,1.985-1.942c3.817-13.526,7.701-27.034,11.506-40.564c0.4-1.419,0.881-1.808,2.348-1.308
		c3.734,1.271,7.643,1.986,11.322,3.451c0.443,0.894,0.26,1.776,0,2.68c-2.941,10.21-5.748,20.457-8.738,30.652
		c-0.793,2.701-0.781,2.687,1.92,2.137c5.061-1.029,10.123-2.063,15.199-3.036c0.871,0.021,1.693-0.233,2.535-0.421
		c1.48-0.328,2.334,0.133,2.707,1.623c0.887,3.559,1.578,7.161,2.16,10.78c0.24,1.491-0.436,2.171-2.357,2.548
		c-3.598,0.708-7.193,1.426-10.789,2.146c-4.83,0.968-9.65,1.993-14.502,2.858c-1.699,0.304-2.521,1.118-2.982,2.773
		c-2.323,8.339-4.719,16.658-7.112,24.979c-0.396,1.377-0.782,2.758-1.175,4.136c-0.184,0.65-0.476,1.311-0.083,1.988
		c0.845,0.613,1.811,0.695,2.797,0.695c12.736-0.002,25.477,0.045,38.215-0.034c2.748-0.018,5.498-0.308,8.248-0.163
		C132.336,128.063,133.037,129.515,131.824,131.432z"/>
	<path fill-rule="evenodd" clip-rule="evenodd" fill="#3949AA" d="M79.61,127.553c1.897-6.783,3.784-13.571,5.696-20.351
		c1.167-4.135,2.429-8.244,3.523-12.397c0.307-1.162,0.897-1.508,1.97-1.719c9.17-1.796,18.328-3.663,27.498-5.46
		c0.914-0.178,1.115-0.481,0.926-1.363c-0.789-3.7-1.568-7.404-2.232-11.129c-0.191-1.082-0.668-1.141-1.516-0.958
		c-1.004,0.217-2.02,0.383-3.031,0.57c-0.105-1.211,0.842-1.834,1.52-2.547c2.33-2.451,4.76-4.808,7.154-7.196
		c1.014-1.011,2.166-1.929,1.65-3.642c-0.08-0.265,0.113-0.55,0.379-0.719c5.191,4.936,10.248,10.005,15.186,15.196
		c1.023,1.375,0.619,2.56-0.475,3.669c-0.523,0.531-1.043,1.066-1.572,1.594c-15.178,15.18-30.355,30.36-45.543,45.532
		c-0.79,0.787-1.494,1.763-2.773,1.854c-2.442,0-4.878,0.014-7.317-0.011C80.088,128.472,79.236,128.671,79.61,127.553z"/>
	<path fill-rule="evenodd" clip-rule="evenodd" fill="#3949AA" d="M88.607,128.292c0.136-0.881,0.862-1.334,1.419-1.892
		c15.603-15.618,31.208-31.237,46.849-46.82c1.094-1.09,1.893-2.131,1.457-3.741c3.584,3.318,7.033,6.773,10.352,10.359
		c0.912,1.306,0.613,2.477-0.393,3.575c-0.387,0.424-0.789,0.832-1.195,1.236c-11.889,11.89-23.775,23.78-35.672,35.658
		c-0.789,0.787-1.5,1.761-2.791,1.819c-6.066,0-12.125,0.007-18.188-0.011C89.833,128.476,89.188,128.664,88.607,128.292z"/>
	<path fill-rule="evenodd" clip-rule="evenodd" fill="#3949AA" d="M99.666,142.448c8.17-0.17,16.338-0.147,24.508,0
		c-0.094,0.901-0.826,1.352-1.383,1.908c-9.1,9.113-18.205,18.215-27.311,27.321c-1.768,1.766-1.766,1.76-3.998,0.438
		c-0.24-0.141-0.529-0.205-0.795-0.305c-3.935-3.66-7.734-7.454-11.394-11.391c0.121-0.208,0.315-0.427,0.528-0.398
		c1.971,0.26,2.992-1.159,4.156-2.32c4.193-4.187,8.389-8.37,12.564-12.573C97.516,144.147,98.5,143.196,99.666,142.448z"/>
	<path fill-rule="evenodd" clip-rule="evenodd" fill="#3949AA" d="M123.146,60.643c1.133,2.242-0.174,3.571-1.676,5.012
		c-3.082,2.956-6.025,6.053-9.027,9.092c-6.229,1.273-12.457,2.548-18.957,3.876c3.566-12.506,7.061-24.762,10.557-37.018
		c1.047,0.636,1.797,1.593,2.643,2.442C112.182,49.569,117.66,55.108,123.146,60.643z"/>
	<path fill-rule="evenodd" clip-rule="evenodd" fill="#3949AA" d="M88.607,128.292c6.905,0.002,13.809,0.002,20.713,0.004
		c0.68-0.668,1.535-0.687,2.41-0.685c2.984,0.005,5.969-0.024,8.951,0.017c1.105,0.014,1.951-0.293,2.75-1.099
		c10.068-10.14,20.162-20.252,30.334-30.286c1.086-1.074,0.822-2.403,1.477-3.486c2.783,2.509,5.43,5.157,7.938,7.941
		c0.01,0.057,0.006,0.12,0.029,0.169c1.639,3.17,1.639,3.169-0.992,5.8c-9.225,9.225-18.445,18.451-27.682,27.662
		c-0.379,0.379-0.678,1.123-1.332,0.882c-0.574-0.213-0.572-0.959-0.678-1.5c-0.154-0.791-0.24-1.589-0.701-2.279
		c-0.141-2.8-0.141-2.8-2.986-2.798c-16.039,0.003-32.078,0.014-48.119-0.009c-0.565,0-1.979,0.55-1.109-1.072
		c0.266,0.907,1.022,0.748,1.682,0.75C83.73,128.31,86.168,128.297,88.607,128.292z"/>
	<path fill-rule="evenodd" clip-rule="evenodd" fill="#3949AA" d="M155.242,92.757c0.811,1.626,0.262,2.747-1.006,4.003
		c-10.33,10.233-20.59,20.539-30.836,30.858c-0.625,0.628-1.254,0.696-2.006,0.694c-4.025-0.009-8.049-0.012-12.074-0.017
		c0.133-0.884,0.857-1.337,1.414-1.894c12.098-12.112,24.191-24.229,36.332-36.298c1.148-1.14,1.885-2.269,1.617-3.906
		C151.006,88.246,153.191,90.434,155.242,92.757z"/>
	<path fill-rule="evenodd" clip-rule="evenodd" fill="#3949AA" d="M99.666,142.448c-0.076,0.832-0.738,1.264-1.252,1.779
		c-4.768,4.782-9.58,9.521-14.298,14.349c-1.379,1.41-2.666,2.654-4.822,1.844c-4.605-4.548-9.227-9.081-13.805-13.656
		c-1.413-1.41-2.979-2.685-4.13-4.347c9.678-0.021,19.357-0.053,29.037-0.06C93.484,142.355,96.576,142.417,99.666,142.448z"/>
	<path fill-rule="evenodd" clip-rule="evenodd" fill="#3949AA" d="M50.996,101.063c7.627-1.511,15.254-3.022,23.151-4.587
		c-1.038,3.621-2.008,7.046-3.002,10.463c-1.07,3.675-2.164,7.344-3.247,11.017C62.134,112.454,56.502,106.821,50.996,101.063z"/>
	<path fill-rule="evenodd" clip-rule="evenodd" fill="#3949AA" d="M115.211,174.605c0.031-0.428,0.203-0.781,0.578-1.004
		c2.322-1.366,3.986-3.461,5.85-5.322c16.611-16.575,33.186-33.19,49.822-49.741c1.084-1.077,1.533-2.727,3.092-3.341
		c-0.98,4.514-2.771,8.737-4.803,12.841c-11.357,22.931-29.191,38.419-53.533,46.373
		C115.896,174.516,115.547,174.542,115.211,174.605z"/>
</g>
</svg>
