<?xml version="1.0" encoding="utf-8"?>
<!-- Generator: Adobe Illustrator 16.0.0, SVG Export Plug-In . SVG Version: 6.00 Build 0)  -->
<!DOCTYPE svg PUBLIC "-//W3C//DTD SVG 1.1//EN" "http://www.w3.org/Graphics/SVG/1.1/DTD/svg11.dtd">
<svg version="1.1" id="Layer_1" xmlns="http://www.w3.org/2000/svg" xmlns:xlink="http://www.w3.org/1999/xlink" x="0px" y="0px"
	 width="180px" height="180px" viewBox="0 0 180 180" enable-background="new 0 0 180 180" xml:space="preserve">
<g>
	<path fill-rule="evenodd" clip-rule="evenodd" fill="#EA001B" d="M53.772,34.46c1.198,0,2.395,0,3.593,0
		c0.521,0.16,1.054,0.034,1.58,0.075c6.342-0.109,12.315,1.515,18.123,3.883c4.337,1.768,8.347,4.119,12.097,6.921
		c0.321,0.24,0.645,0.474,0.789,0.873c0.021,0.079,0.023,0.159,0.011,0.239c-0.1,0.361-0.388,0.564-0.656,0.788
		c-6.199,5.163-11.111,11.346-14.642,18.604c-2.581,5.308-4.247,10.893-5.058,16.746c-0.314,2.276-0.456,4.563-0.521,6.845
		c-0.071,2.484,0.129,4.976,0.441,7.447c0.484,3.818,1.34,7.553,2.604,11.189c2.225,6.4,5.473,12.223,9.834,17.42
		c2.235,2.662,4.707,5.08,7.376,7.301c0.25,0.209,0.51,0.404,0.613,0.734c0.018,0.08,0.017,0.16,0.001,0.24
		c-0.167,0.516-0.618,0.768-1.013,1.061c-6.016,4.455-12.653,7.602-19.915,9.434c-3.249,0.82-6.542,1.229-9.892,1.209
		c-0.192-0.002-0.398-0.066-0.577,0.07c-1.946,0-3.892,0-5.838,0c-1.281-0.152-2.572-0.135-3.857-0.203
		c-2.808-0.152-5.521-0.785-8.209-1.529c-6.78-1.877-12.988-4.938-18.588-9.197c-6.25-4.754-11.33-10.539-15.162-17.408
		c-3.24-5.805-5.377-11.996-6.37-18.566c-0.256-1.693-0.274-3.42-0.287-5.139c-0.001-0.168,0.056-0.35-0.072-0.502
		c0-1.996,0-3.993,0-5.989c0.156-1.229,0.15-2.472,0.203-3.706c0.122-2.888,0.791-5.669,1.554-8.428
		c1.869-6.752,4.931-12.935,9.17-18.511c4.781-6.288,10.611-11.389,17.527-15.239c5.207-2.899,10.75-4.85,16.584-6.006
		c2.305-0.457,4.642-0.531,6.981-0.58C52.722,34.495,53.254,34.621,53.772,34.46z"/>
	<path fill-rule="evenodd" clip-rule="evenodd" fill="#F69E1D" d="M89.894,133.68c-0.015-0.039-0.024-0.078-0.03-0.119
		c0.625-0.859,1.57-1.359,2.34-2.059c1.589-1.445,3.114-2.955,4.564-4.529c2.316-2.518,4.321-5.281,6.11-8.201
		c1.828-2.986,3.332-6.129,4.556-9.408c1.486-3.986,2.482-8.098,3.02-12.313c0.192-1.504,0.277-3.023,0.375-4.539
		c0.114-1.797,0.049-3.579-0.025-5.369c-0.133-3.169-0.587-6.295-1.29-9.384c-1.908-8.383-5.58-15.909-10.989-22.591
		c-2.455-3.033-5.18-5.794-8.233-8.229c-0.171-0.137-0.375-0.255-0.429-0.499c0.005-0.04,0.016-0.079,0.032-0.116
		c0.059-0.33,0.327-0.493,0.56-0.671c7.226-5.56,15.353-9.079,24.31-10.702c1.814-0.329,3.661-0.334,5.498-0.418
		c0.392-0.018,0.793,0.092,1.176-0.072c1.597,0,3.193,0,4.791,0c1.006,0.195,2.03,0.103,3.04,0.123
		c3.773,0.076,7.416,0.857,11.004,1.92c5.441,1.611,10.51,4.034,15.211,7.213c3.064,2.072,5.929,4.399,8.509,7.046
		c3.582,3.674,6.645,7.748,9.139,12.247c2.916,5.256,4.902,10.839,6.029,16.736c0.466,2.434,0.536,4.893,0.591,7.356
		c0.007,0.317-0.089,0.646,0.07,0.951c0,1.647,0,3.294,0,4.941c-0.155,1.23-0.151,2.473-0.202,3.707
		c-0.118,2.865-0.778,5.625-1.534,8.359c-1.872,6.779-4.939,12.99-9.196,18.588c-5.623,7.396-12.626,13.119-21.062,17.045
		c-4.75,2.211-9.724,3.729-14.909,4.488c-1.696,0.248-3.421,0.287-5.14,0.285c-0.168,0-0.351-0.057-0.502,0.072
		c-1.946,0-3.893,0-5.839,0c-1.305-0.152-2.622-0.146-3.931-0.201c-2.409-0.102-4.738-0.631-7.047-1.223
		c-4.042-1.037-7.932-2.502-11.638-4.434c-2.878-1.502-5.606-3.238-8.203-5.182C90.328,134.281,89.986,134.084,89.894,133.68z"/>
	<path fill-rule="evenodd" clip-rule="evenodd" fill="#FE5F00" d="M89.862,46.44c0.925,0.166,1.463,0.917,2.102,1.471
		c3.973,3.45,7.41,7.378,10.27,11.798c3.288,5.083,5.727,10.547,7.213,16.425c0.991,3.919,1.537,7.892,1.696,11.941
		c0.26,6.645-0.675,13.104-2.715,19.409c-2.093,6.471-5.328,12.346-9.625,17.611c-2.445,2.996-5.156,5.748-8.216,8.137
		c-0.218,0.17-0.414,0.367-0.723,0.328c-3.016-2.281-5.663-4.943-8.1-7.826c-3.866-4.574-6.866-9.664-9.067-15.225
		c-1.808-4.563-2.986-9.281-3.531-14.166c-0.239-2.133-0.409-4.273-0.385-6.41c0.137-12.565,3.949-23.899,11.594-33.897
		C83.125,52.441,86.257,49.202,89.862,46.44z"/>
</g>
</svg>
