<?xml version="1.0" encoding="utf-8"?>
<!-- Generator: Adobe Illustrator 16.0.0, SVG Export Plug-In . SVG Version: 6.00 Build 0)  -->
<!DOCTYPE svg PUBLIC "-//W3C//DTD SVG 1.1//EN" "http://www.w3.org/Graphics/SVG/1.1/DTD/svg11.dtd">
<svg version="1.1" id="Layer_1" xmlns="http://www.w3.org/2000/svg" xmlns:xlink="http://www.w3.org/1999/xlink" x="0px" y="0px"
	 width="180px" height="180px" viewBox="0 0 180 180" enable-background="new 0 0 180 180" xml:space="preserve">
<g>
	<path fill-rule="evenodd" clip-rule="evenodd" fill="#7E45DE" d="M99.021,109.805c0,4.733,0.059,9.134-0.017,13.532
		c-0.091,5.269,2.057,9.119,6.701,11.719c6.051,3.383,11.992,6.957,17.994,10.419c4.326,2.495,8.646,2.632,13.007-0.011
		c5.929-3.593,11.897-7.12,17.861-10.654c4.2-2.488,6.315-6.079,6.257-11.029c-0.087-7.196-0.069-14.396-0.007-21.593
		c0.042-4.933-2.033-8.538-6.296-10.984c-6.118-3.512-12.195-7.097-18.31-10.618c-4.393-2.529-8.708-2.532-13.177,0.078
		c-22.229,12.987-44.502,25.899-66.774,38.813c-4.244,2.462-8.506,2.583-12.85,0.042c-12.021-7.027-24.09-13.971-36.131-20.965
		c-4.144-2.407-6.278-5.979-6.269-10.836C1.039,73.631,1.032,59.546,1.014,45.46c-0.005-4.627,1.923-7.941,6.016-10.292
		c12.234-7.028,24.375-14.221,36.545-21.362c4.448-2.61,8.844-2.736,13.35-0.065c11.712,6.943,23.452,13.84,35.204,20.715
		c4.346,2.542,6.567,6.187,6.462,11.286c-0.095,4.528-0.025,9.059-0.015,13.589c0.002,0.692,0,1.25-0.765,1.686
		c-5.529,3.147-11.026,6.355-16.848,9.725c0-1.813,0-3.379,0-4.945c0-3.227,0.008-6.454-0.003-9.68
		c-0.017-4.721-1.968-8.313-6.088-10.758c-6.229-3.694-12.387-7.509-18.607-11.217c-4.237-2.525-8.519-2.631-12.842-0.087
		c-6.079,3.578-12.188,7.105-18.301,10.627c-4.295,2.475-6.492,6.104-6.455,11.114c0.053,7.135,0.053,14.271,0,21.407
		c-0.037,4.972,1.989,8.656,6.308,11.195c6.189,3.639,12.279,7.446,18.454,11.109c4.173,2.475,8.489,2.685,12.673,0.084
		c22.134-13.76,45.217-25.891,67.507-39.375c4.285-2.592,8.615-2.692,13.008-0.13c11.923,6.952,23.866,13.868,35.814,20.771
		c4.42,2.555,6.584,6.281,6.557,11.44c-0.074,13.962-0.067,27.924-0.007,41.886c0.023,5.209-2.117,8.945-6.662,11.544
		c-11.765,6.728-23.475,13.549-35.175,20.396c-4.716,2.758-9.221,2.814-14.002-0.021c-11.708-6.945-23.52-13.722-35.31-20.528
		c-4.373-2.525-6.554-6.192-6.441-11.287c0.095-4.342,0.022-8.686,0.017-13.029c-0.001-0.678-0.049-1.267,0.724-1.708
		C87.664,116.397,93.164,113.192,99.021,109.805z"/>
</g>
</svg>
