<?xml version="1.0" encoding="utf-8"?>
<!-- Generator: Adobe Illustrator 16.0.0, SVG Export Plug-In . SVG Version: 6.00 Build 0)  -->
<!DOCTYPE svg PUBLIC "-//W3C//DTD SVG 1.1//EN" "http://www.w3.org/Graphics/SVG/1.1/DTD/svg11.dtd">
<svg version="1.1" id="Layer_1" xmlns="http://www.w3.org/2000/svg" xmlns:xlink="http://www.w3.org/1999/xlink" x="0px" y="0px"
	 width="180px" height="180px" viewBox="0 0 180 180" enable-background="new 0 0 180 180" xml:space="preserve">
<g>
	<path fill-rule="evenodd" clip-rule="evenodd" fill="#002986" d="M47.182,2.242c22.968,0,45.936,0,68.904,0
		c1.329,0.302,2.694,0.248,4.04,0.393c5.202,0.559,9.701,2.912,13.892,5.805c9.878,6.818,15.28,16.384,16.579,28.243
		c0.334,3.043,0.35,6.146-0.143,9.208c-0.107,0.662-0.161,1.384-0.871,1.765c-1.272,0.216-2.148-0.643-3.117-1.193
		c-4.185-2.375-8.656-3.683-13.458-4.138c-4.908-0.464-9.812-0.241-14.715-0.268c-10.738-0.058-21.478-0.038-32.217-0.004
		c-2.405,0.009-4.809,0.248-6.938,1.521c-3.057,1.829-4.572,4.655-5.137,8.102c-2.275,13.892-4.694,27.76-6.967,41.652
		c-0.551,3.372-1.07,6.757-1.862,10.087c-0.137,0.575-0.104,1.128-0.063,1.695c-2.714,14.973-5.086,30.006-7.662,45.004
		c-0.166,0.96-0.477,1.878-0.827,2.786c-0.432,0.603-0.851,1.214-1.261,1.828c-1.556,2.337-3.817,3.448-6.523,3.479
		c-7.994,0.094-15.989,0.092-23.982,0.011c-5.03-0.053-9.204-5.11-8.389-10.062c2.724-16.53,5.579-33.036,8.321-49.563
		c2.882-17.369,5.852-34.722,8.731-52.09c2.031-12.253,4.111-24.499,6.172-36.748C40.475,5.104,42.522,3.104,47.182,2.242z"/>
	<path fill-rule="evenodd" clip-rule="evenodd" fill="#0084CB" d="M149.76,47.738c7.124,5.03,11.803,11.847,13.193,20.38
		c2.603,15.987-2.35,29.904-12.934,41.895c-7.555,8.557-17.133,13.806-28.237,16.194c-4.741,1.019-9.611,1.356-14.458,1.095
		c-7.247-0.391-12.778,4.048-13.914,12.221c-1.187,8.548-2.777,17.042-4.199,25.558c-0.254,1.512-0.694,3.006-0.797,4.525
		c-0.259,3.854-1.984,6.623-5.581,8.152c-7.999,0-15.997,0-23.997,0c-4.655-1.082-6.862-4.373-6.063-9.155
		c0.637-3.812,1.264-7.623,1.92-11.43c0.265-1.531,0.861-2.925,1.403-4.351c2.012-10.14,3.532-20.364,5.29-30.548
		c0.86-4.984,1.723-9.967,2.527-14.96c0.131-0.809,0.51-1.501,0.698-2.27c0.094-1.587,0.941-2.737,2.162-3.648
		c2.1-1.568,4.529-2.122,7.086-2.14c5.934-0.038,11.87,0.06,17.803-0.026c12.989-0.188,24.577-4.471,34.854-12.314
		c9.627-7.35,16.076-17.001,20.012-28.379c0.989-2.857,1.561-5.834,2.111-8.807C148.785,48.944,148.909,48.134,149.76,47.738z"/>
	<path fill-rule="evenodd" clip-rule="evenodd" fill="#00186A" d="M149.76,47.738c-0.953,4.979-1.922,9.952-3.901,14.657
		c-6.938,16.488-18.699,27.966-35.535,34.149c-6.76,2.483-13.759,3.54-20.954,3.461c-5.308-0.061-10.617-0.027-15.925-0.005
		c-3.882,0.017-6.948,1.508-8.833,5.044c-0.512-1.668,0.205-3.248,0.466-4.823c2.181-13.134,4.466-26.252,6.708-39.376
		c0.662-3.87,1.009-7.805,2.079-11.589c1.173-4.147,3.998-6.669,8.22-7.556c1.676-0.353,3.386-0.393,5.103-0.39
		c14.167,0.021,28.334-0.045,42.501,0.039c5.584,0.034,10.993,1.13,15.98,3.803c1.355,0.727,2.653,1.562,3.978,2.347
		C149.725,47.562,149.763,47.64,149.76,47.738z"/>
</g>
</svg>
