<?xml version="1.0" encoding="utf-8"?>
<!-- Generator: Adobe Illustrator 16.0.0, SVG Export Plug-In . SVG Version: 6.00 Build 0)  -->
<!DOCTYPE svg PUBLIC "-//W3C//DTD SVG 1.1//EN" "http://www.w3.org/Graphics/SVG/1.1/DTD/svg11.dtd">
<svg version="1.1" id="Layer_1" xmlns="http://www.w3.org/2000/svg" xmlns:xlink="http://www.w3.org/1999/xlink" x="0px" y="0px"
	 width="180px" height="180px" viewBox="0 0 180 180" enable-background="new 0 0 180 180" xml:space="preserve">
<path fill-rule="evenodd" clip-rule="evenodd" fill="#E40028" d="M172.753,57.914c-10.176-10.45-20.269-20.983-30.366-31.51
	c-0.784-0.817-1.58-1.448-2.75-1.651c-15.843-2.754-31.68-5.54-47.519-8.314C71.724,12.867,51.33,9.294,30.934,5.731
	c-8.076-1.411-16.155-2.8-24.503-4.245c24.426,59.096,48.754,117.953,73.171,177.027c2.431-3.065,4.703-5.93,6.973-8.795
	c28.745-36.287,57.484-72.578,86.257-108.843C173.744,59.726,173.911,59.102,172.753,57.914z M128.206,33.5
	c0.073,0.679-0.464,0.869-0.806,1.157c-11.296,9.541-22.609,19.061-33.888,28.62c-0.881,0.746-1.391,0.9-2.384,0.082
	C72.462,47.993,53.755,32.676,35.062,17.344c-0.299-0.246-0.737-0.392-0.788-1.163C65.642,21.964,96.927,27.732,128.206,33.5z
	 M87.182,75.198c-1.658,13.643-3.209,27.299-4.794,40.951c-1.275,10.976-2.555,21.951-3.84,32.927
	c-0.013,0.096-0.15,0.178-0.429,0.489c-17.509-42.77-34.967-85.416-52.609-128.511c0.803,0.62,1.266,0.946,1.697,1.312
	c19.605,16.625,39.201,33.259,58.826,49.859C87.035,73.071,87.347,73.837,87.182,75.198z M88.981,150.182
	c0.538-4.652,1.002-8.731,1.483-12.81c1.595-13.511,3.2-27.021,4.792-40.531c0.727-6.173,1.461-12.345,2.117-18.524
	c0.121-1.138,0.643-1.511,1.653-1.671c14.927-2.375,29.851-4.768,44.774-7.158c4.493-0.721,8.986-1.447,14.027-2.26
	C134.789,94.987,112.071,122.361,88.981,150.182z M106.439,65.977c0.111-0.977,0.821-1.23,1.298-1.626
	c10.146-8.438,20.334-16.828,30.437-25.319c1.315-1.104,1.98-0.979,3.155,0.129c5.684,5.357,11.466,10.61,17.207,15.904
	c0.343,0.316,0.647,0.672,1.167,1.215C141.829,59.534,124.195,62.744,106.439,65.977z"/>
</svg>
