<?xml version="1.0" encoding="utf-8"?>
<!-- Generator: Adobe Illustrator 16.0.0, SVG Export Plug-In . SVG Version: 6.00 Build 0)  -->
<!DOCTYPE svg PUBLIC "-//W3C//DTD SVG 1.1//EN" "http://www.w3.org/Graphics/SVG/1.1/DTD/svg11.dtd">
<svg version="1.1" id="Layer_1" xmlns="http://www.w3.org/2000/svg" xmlns:xlink="http://www.w3.org/1999/xlink" x="0px" y="0px"
	 width="180px" height="180px" viewBox="0 0 180 180" enable-background="new 0 0 180 180" xml:space="preserve">
<path fill="#01A478" d="M96.641,179.477c-4.078,0-8.154,0-12.232,0c-3.045-0.33-6.117-0.264-9.162-0.58
	c-6.061-0.627-11.832-2.401-17.491-4.565c-9.98-3.815-19.111-9.121-27.065-16.258c-5.893-5.285-11.288-11.074-15.669-17.73
	C8.555,130.523,3.962,119.9,1.577,108.374c-0.729-3.522-0.724-7.146-0.887-10.735c-0.03-0.683,0.198-1.39-0.167-2.046
	c0-3.729,0-7.456,0-11.184C0.83,81.361,0.779,78.29,1.12,75.25c0.776-6.93,2.855-13.518,5.518-19.932
	c5.023-12.11,12.405-22.56,22.004-31.492c7.483-6.967,15.925-12.407,25.249-16.55C59.119,4.954,64.531,3.234,70.086,1.9
	c3.814-0.917,7.708-0.893,11.576-1.205c0.451-0.036,0.932,0.148,1.348-0.172c4.543,0,9.088,0,13.631,0
	c2.694,0.345,5.418,0.323,8.118,0.581c5.722,0.546,11.164,2.23,16.517,4.19c10.313,3.776,19.707,9.204,27.904,16.514
	c7.45,6.647,13.942,14.144,18.913,22.891c4.484,7.893,7.841,16.203,9.927,25.048c0.94,3.994,0.973,8.05,1.285,12.092
	c0.063,0.856-0.197,1.733,0.172,2.568c0,4.077,0,8.155,0,12.233c-0.353,2.696-0.291,5.426-0.599,8.12
	c-0.787,6.939-2.849,13.539-5.532,19.955c-4.855,11.595-11.83,21.695-20.927,30.423c-12.53,12.021-27.313,19.645-44.198,23.313
	c-3.236,0.703-6.582,0.621-9.884,0.855C97.773,179.348,97.176,179.127,96.641,179.477z"/>
<path fill-rule="evenodd" clip-rule="evenodd" fill="#FFFFFF" d="M151.541,87.787c-1.706-1.349-3.645-2.293-5.663-3.072
	c-8.602-3.311-17.63-4.668-26.707-5.776c-4.93-0.601-9.881-0.996-14.844-1.18c-1.059-0.039-1.378-0.434-1.361-1.501
	c0.065-4.231,0.089-8.464-0.002-12.694c-0.028-1.311,0.385-1.586,1.612-1.581c10.946,0.044,21.894,0.009,32.841,0.049
	c1.138,0.004,1.468-0.303,1.458-1.453c-0.05-6.99-0.055-13.981,0.003-20.972c0.01-1.189-0.25-1.546-1.502-1.543
	c-15.776,0.047-31.553,0.032-47.329,0.031c-15.777,0-31.553,0.012-47.329-0.024c-1.129-0.002-1.473,0.279-1.464,1.438
	c0.053,6.944,0.061,13.891-0.005,20.835c-0.012,1.304,0.292,1.703,1.65,1.696c10.946-0.056,21.894-0.015,32.84-0.057
	c1.095-0.004,1.388,0.288,1.372,1.376c-0.065,4.23-0.094,8.464,0.007,12.693c0.032,1.351-0.394,1.689-1.664,1.738
	c-7.631,0.294-15.222,1.054-22.761,2.271c-6.575,1.062-13.089,2.398-19.281,4.957c-2.087,0.862-4.1,1.878-5.735,3.475
	c-2.132,2.081-2.114,4.278,0.009,6.356c1.297,1.27,2.858,2.142,4.487,2.903c4.562,2.131,9.403,3.353,14.303,4.378
	c9.605,2.006,19.344,2.948,29.125,3.467c1.359,0.072,1.497,0.591,1.495,1.72c-0.029,15.683-0.007,31.367-0.045,47.052
	c-0.003,1.188,0.268,1.57,1.518,1.561c7.635-0.059,15.27-0.067,22.906,0.007c1.337,0.014,1.543-0.428,1.54-1.62
	c-0.035-15.775-0.016-31.553-0.045-47.329c-0.003-0.975,0.184-1.334,1.246-1.385c5.189-0.248,10.367-0.651,15.528-1.271
	c7.576-0.908,15.089-2.142,22.396-4.403c3.339-1.033,6.631-2.217,9.414-4.412C154.716,93.022,154.689,90.273,151.541,87.787z
	 M146.789,92.54c-1.246,1.276-2.821,2.029-4.444,2.684c-5.404,2.176-11.09,3.245-16.809,4.097
	c-11.798,1.753-23.679,2.395-33.846,2.346c-13.535,0.007-25.279-0.565-36.941-2.315c-5.811-0.873-11.591-1.914-17.083-4.125
	c-1.58-0.637-3.114-1.371-4.354-2.577c-1.505-1.466-1.517-2.951,0.003-4.41c1.732-1.665,3.935-2.498,6.148-3.262
	c5.71-1.972,11.64-2.973,17.598-3.792c6.148-0.846,12.336-1.299,18.53-1.697c1.238-0.08,1.553,0.254,1.534,1.481
	c-0.077,4.873-0.008,9.748-0.074,14.622c-0.015,1.097,0.361,1.428,1.398,1.479c7.722,0.366,15.44,0.385,23.163,0.03
	c1.163-0.054,1.405-0.484,1.392-1.576c-0.061-4.966-0.015-9.932-0.038-14.898c-0.004-0.749,0.052-1.191,1.012-1.134
	c11.568,0.677,23.095,1.659,34.325,4.751c2.341,0.644,4.633,1.48,6.73,2.741c0.623,0.375,1.217,0.834,1.733,1.346
	C148.168,89.718,148.165,91.128,146.789,92.54z"/>
</svg>
