<?xml version="1.0" encoding="utf-8"?>
<!-- Generator: Adobe Illustrator 16.0.0, SVG Export Plug-In . SVG Version: 6.00 Build 0)  -->
<!DOCTYPE svg PUBLIC "-//W3C//DTD SVG 1.1//EN" "http://www.w3.org/Graphics/SVG/1.1/DTD/svg11.dtd">
<svg version="1.1" id="Layer_1" xmlns="http://www.w3.org/2000/svg" xmlns:xlink="http://www.w3.org/1999/xlink" x="0px" y="0px"
	 width="180px" height="180px" viewBox="0 0 180 180" enable-background="new 0 0 180 180" xml:space="preserve">
<g>
	<path fill-rule="evenodd" clip-rule="evenodd" fill="#FEFEFE" d="M179.752,52.035c0,26.762,0,53.524,0,80.287
		c-0.512,0.468-1.15,0.532-1.799,0.558c-0.643,0.024-1.283,0.017-1.928,0.017c-54.777,0.001-109.553,0.003-164.33-0.011
		c-1.261-0.001-2.583,0.274-3.754-0.497c-0.62-0.739-0.546-1.64-0.546-2.508c-0.013-25.113-0.014-50.229-0.001-75.343
		c0.001-2.717,0.297-2.994,3.038-2.994c55.602-0.006,111.204-0.005,166.805,0.003C178.098,51.545,179.008,51.387,179.752,52.035z"/>
	<path fill-rule="evenodd" clip-rule="evenodd" fill="#059ABE" d="M9.978,30.244c0.846-0.344,1.732-0.172,2.596-0.172
		c51.273-0.003,102.545,0.06,153.818-0.054c6.635-0.015,11.291,2.125,13.359,8.695c0,4.324,0,8.648,0,12.972
		c-0.668,0.332-1.379,0.161-2.068,0.161c-56.463,0.011-112.926,0.008-169.386,0.01c-0.915-0.26-0.805-1.063-0.815-1.715
		c-0.052-3.609-0.259-7.237,0.048-10.824c0.348-4.07,2.575-7.006,6.185-8.571c-0.434,0.083-1.118,0.082-1.799,0.051
		C11.231,30.766,10.496,30.873,9.978,30.244z"/>
	<path fill-rule="evenodd" clip-rule="evenodd" fill="#F69E1A" d="M179.752,145.293c-0.525,0.396-0.416,1.055-0.629,1.578
		c-1.604,3.964-4.453,6.332-8.719,6.896c-0.979,0.13-1.979,0.158-2.969,0.158c-51.674,0.014-103.349,0.021-155.023,0.017
		c-0.806,0-1.634,0.17-2.418-0.181c1.438-1.025,2.982-0.419,4.143-0.402c-3.747-1.204-6.642-4.998-6.651-9.286
		c-0.009-3.78-0.201-7.564,0.127-11.344c0.067-0.193,0.18-0.357,0.336-0.491c0.758,0.02,1.516,0.056,2.273,0.056
		c55.75,0.003,111.502,0.002,167.252,0.003c0.76,0,1.518,0.017,2.277,0.025C179.752,136.645,179.752,140.969,179.752,145.293z"/>
	<path fill-rule="evenodd" clip-rule="evenodd" fill="#DDDDDD" d="M7.946,51.624c0.758,0.017,1.516,0.052,2.273,0.052
		c56.51,0.005,113.021,0.006,169.532,0.008c0,0.117,0,0.234,0,0.351c-56.668-0.003-113.337,0-170.005-0.052
		c-1.735-0.001-1.82,0.739-1.818,2.087c0.028,26.055,0.021,52.111,0.021,78.167l0.011,0.145c-2.576,0.765-5.147,0.846-7.711-0.061
		c0-26.879,0-53.758,0-80.637C2.808,50.779,5.374,50.858,7.946,51.624z"/>
	<path fill-rule="evenodd" clip-rule="evenodd" fill="#0989A7" d="M7.946,51.624c-2.566,0.02-5.132,0.04-7.698,0.06
		c0-4.323,0-8.647,0-12.972c1.094-3.268,2.776-6.066,6.065-7.577c1.163-0.535,2.351-0.969,3.664-0.891c1.657,0,3.313,0,5.179,0
		c-0.623,0.806-1.335,0.935-1.917,1.265c-3.415,1.932-5.241,4.823-5.274,8.771C7.934,44.06,7.951,47.842,7.946,51.624z"/>
	<path fill-rule="evenodd" clip-rule="evenodd" fill="#D68B1B" d="M0.249,132.321c2.57,0.02,5.142,0.04,7.712,0.061
		c-0.001,3.559,0.049,7.117-0.017,10.675c-0.087,4.72,2.047,7.979,6.287,9.933c0.355,0.163,0.708,0.333,1.045,0.771
		c-1.761,0-3.522,0-5.283,0c-4.461-0.307-7.315-2.763-9.071-6.729c-0.253-0.573-0.162-1.273-0.674-1.738
		C0.249,140.969,0.249,136.645,0.249,132.321z"/>
	<path fill-rule="evenodd" clip-rule="evenodd" fill="#059ABE" d="M148.551,69.214c1.4,0,2.805,0.061,4.201-0.02
		c1.109-0.064,1.588,0.228,1.85,1.434c2.838,13.097,5.771,26.175,8.641,39.267c0.354,1.614,1.566,3.667,0.688,4.751
		c-0.791,0.975-3.076,0.234-4.699,0.273c-1.635,0.038-3.279-0.1-4.902,0.041c-1.328,0.114-1.719-0.505-1.914-1.626
		c-0.24-1.377-0.609-2.73-0.865-4.104c-0.146-0.789-0.428-1.161-1.344-1.151c-4.613,0.054-9.227,0.053-13.84,0.002
		c-0.881-0.011-1.232,0.343-1.486,1.09c-0.453,1.323-1.063,2.596-1.445,3.936c-0.393,1.378-1.068,1.929-2.588,1.862
		c-3.207-0.138-6.424-0.069-9.635-0.027c-1.109,0.014-1.625-0.07-1.031-1.401c5.971-13.413,11.908-26.842,17.818-40.283
		c1.201-2.733,3.275-3.983,6.172-4.031c1.459-0.024,2.92-0.004,4.381-0.004C148.551,69.22,148.551,69.216,148.551,69.214z"/>
	<path fill-rule="evenodd" clip-rule="evenodd" fill="#059ABE" d="M98.795,115.472c-4.17,0.103-8.238-0.51-12.257-1.645
		c-1.425-0.402-1.677-1.078-1.417-2.371c0.449-2.229,0.863-4.469,1.158-6.722c0.186-1.417,0.527-1.823,1.989-1.112
		c3.901,1.897,8.077,2.607,12.411,2.406c1.656-0.077,3.248-0.419,4.682-1.268c2.543-1.507,2.754-4.176,0.48-6.052
		c-1.592-1.313-3.488-2.109-5.322-3.001c-1.785-0.869-3.514-1.83-5.141-2.979c-8.502-5.999-5.576-15.035-0.51-19.242
		c3.332-2.767,7.246-4.181,11.49-4.735c4.977-0.648,9.887-0.388,14.711,1.137c0.988,0.313,1.25,0.685,1.031,1.726
		c-0.504,2.395-0.91,4.815-1.227,7.241c-0.156,1.201-0.572,1.234-1.557,0.828c-3.912-1.612-7.967-2.189-12.16-1.388
		c-0.568,0.109-1.139,0.281-1.664,0.52c-3.061,1.387-3.32,3.896-0.613,5.897c1.744,1.291,3.744,2.128,5.672,3.089
		c1.566,0.782,3.105,1.608,4.529,2.637c6.521,4.712,7.287,13.008,1.709,18.87c-3.982,4.187-9.158,5.597-14.668,6.146
		C101.023,115.565,99.904,115.472,98.795,115.472z"/>
	<path fill-rule="evenodd" clip-rule="evenodd" fill="#059ABE" d="M67.338,69.214c-2.782,6.453-5.456,12.647-8.121,18.846
		c-3.637,8.458-7.292,16.908-10.867,25.392c-0.467,1.108-1.021,1.454-2.188,1.429c-3.444-0.073-6.891-0.048-10.335,0.013
		c-0.971,0.018-1.418-0.232-1.707-1.231c-3.48-12.032-7.015-24.047-10.533-36.068c-0.046-0.159-0.047-0.33-0.126-0.912
		c8.305,6.271,15.683,12.794,18.38,23.173c0.654-0.274,0.651-0.984,0.864-1.523c3.624-9.217,7.254-18.433,10.816-27.674
		c0.424-1.101,0.918-1.505,2.125-1.477C59.438,69.271,63.232,69.214,67.338,69.214z"/>
	<path fill-rule="evenodd" clip-rule="evenodd" fill="#059ABE" d="M78.624,69.188c1.633,0,3.272,0.08,4.899-0.026
		c1.241-0.081,1.304,0.455,1.135,1.439c-2,11.596-3.975,23.196-5.956,34.794c-0.461,2.698-0.947,5.393-1.369,8.097
		c-0.159,1.023-0.545,1.467-1.685,1.436c-3.148-0.086-6.301-0.082-9.451-0.004c-1.25,0.03-1.613-0.302-1.391-1.571
		c1.967-11.246,3.889-22.501,5.819-33.751c0.512-2.985,1.078-5.965,1.467-8.967c0.161-1.243,0.682-1.523,1.805-1.466
		C75.47,69.248,77.048,69.188,78.624,69.188z"/>
	<path fill-rule="evenodd" clip-rule="evenodd" fill="#F69E1A" d="M39.564,91.201c-0.706-1.26-1.161-2.115-1.658-2.949
		c-5.669-9.505-14.355-14.857-24.682-17.985c-0.723-0.219-2.161,0.088-1.994-1.068c0.124-0.854,1.417-0.364,2.166-0.37
		c5.425-0.045,10.852-0.034,16.277-0.02c4.322,0.011,5.593,1.006,6.5,5.185c1.123,5.178,2.189,10.367,3.27,15.554
		C39.521,89.926,39.504,90.324,39.564,91.201z"/>
	<path fill-rule="evenodd" clip-rule="evenodd" fill="#FEFEFE" d="M145.527,81.596c1.213,5.61,2.291,10.722,3.439,15.816
		c0.215,0.954,0.174,1.333-0.955,1.301c-2.619-0.073-5.24-0.028-7.861-0.02c-0.703,0.002-1.293,0.063-0.867-1.013
		C141.328,92.504,143.318,87.305,145.527,81.596z"/>
</g>
</svg>
