<?xml version="1.0" encoding="utf-8"?>
<!-- Generator: Adobe Illustrator 25.2.0, SVG Export Plug-In . SVG Version: 6.00 Build 0)  -->
<svg version="1.1" id="Layer_1" xmlns="http://www.w3.org/2000/svg" xmlns:xlink="http://www.w3.org/1999/xlink" x="0px" y="0px"
	 viewBox="0 0 180 180" style="enable-background:new 0 0 180 180;" xml:space="preserve">
<style type="text/css">
	.st0{fill:url(#SVGID_1_);}
</style>
<g id="Layer_2_1_">
	<g id="Layer_1-2_1_">
		
			<linearGradient id="SVGID_1_" gradientUnits="userSpaceOnUse" x1="848.4586" y1="-29.7037" x2="849.6311" y2="-29.7037" gradientTransform="matrix(86.5569 -86.5569 -86.5569 -86.5569 -75970.5625 71010.3047)">
			<stop  offset="0" style="stop-color:#CF8724"/>
			<stop  offset="1" style="stop-color:#FDCE58"/>
		</linearGradient>
		<path class="st0" d="M90.9,164.4c-40.5,0-73.5-33.1-73.5-73.5c0-40.5,33.1-73.5,73.5-73.5c40.5,0,73.5,33.1,73.5,73.5
			C164.4,131.4,131.4,164.4,90.9,164.4z"/>
		<path d="M90,178.8c-48.9,0-88.8-40-88.8-88.8S41.1,1.2,90,1.2s88.8,40,88.8,88.8S138.9,178.8,90,178.8z M90,20.9
			C52,20.9,20.9,52,20.9,90S52,159.1,90,159.1S159.1,128,159.1,90S128,20.9,90,20.9L90,20.9z"/>
		<path d="M87.9,114.1h38.5v19.2h-22.7v16.3H84v-15.8H60.3c0-6.4-1-12.8,0.5-18.7c0.5-3,3.9-5.9,6.4-8.9
			c7.4-8.9,14.8-17.8,22.7-26.6c3-3.5,5.9-6.4,9.4-10.4h-37V49.9H84V33.6h19.2v15.8h23.7c0,6.4,1,12.8-0.5,18.7
			c-0.5,3-3.9,5.9-6.4,8.9c-7.4,8.9-14.8,17.8-22.7,26.6C94.3,107.2,91.4,110.6,87.9,114.1z"/>
	</g>
</g>
</svg>
