<?xml version="1.0" encoding="utf-8"?>
<!-- Generator: Adobe Illustrator 16.0.0, SVG Export Plug-In . SVG Version: 6.00 Build 0)  -->
<!DOCTYPE svg PUBLIC "-//W3C//DTD SVG 1.1//EN" "http://www.w3.org/Graphics/SVG/1.1/DTD/svg11.dtd">
<svg version="1.1" id="Layer_1" xmlns="http://www.w3.org/2000/svg" xmlns:xlink="http://www.w3.org/1999/xlink" x="0px" y="0px"
	 width="180px" height="180px" viewBox="0 0 180 180" enable-background="new 0 0 180 180" xml:space="preserve">
<g>
	<path fill-rule="evenodd" clip-rule="evenodd" fill="#6C2BD1" d="M0.51,142.393c0-35.264,0-70.526,0-105.79
		c0.249-0.728,0.187-1.493,0.244-2.241C1.1,29.838,2.821,25.764,4.895,21.82c2.127-4.042,4.894-7.613,8.23-10.737
		c5.04-4.718,10.842-8.091,17.513-9.933c1.203-0.332,2.479-0.175,3.677-0.54c36.987,0,73.974,0,110.96,0
		c2.133,0.348,4.281,0.568,6.34,1.336c9.125,3.402,16.369,9.121,21.582,17.365c2.977,4.704,4.936,9.806,5.863,15.299
		c0.199,1.166,0.326,2.351,0.32,3.514c-0.012,2.927,0.111,5.851,0.109,8.776c-0.021,29.721-0.004,59.441-0.021,89.162
		c-0.002,4.814-0.24,9.593-1.84,14.229c-2.506,7.269-6.496,13.498-12.283,18.592c-5.84,5.142-12.58,8.393-20.199,9.85
		c-2.488,0.478-5.012,0.64-7.547,0.64c-32.191,0.001-64.381,0.057-96.573-0.034c-8.319-0.024-15.91-2.564-22.744-7.275
		c-8.538-5.888-14.182-13.87-16.993-23.854c-0.402-1.43-0.444-2.9-0.573-4.359C0.673,143.357,0.69,142.862,0.51,142.393z"/>
	<path fill-rule="evenodd" clip-rule="evenodd" fill="#FEFEFE" d="M104.711,117.74c6.928,0,13.854-0.001,20.781,0.003
		c2.916,0.001,4.381,1.478,4.383,4.417c0.002,4.409,0.004,8.817-0.004,13.226c-0.006,2.612-1.523,4.154-4.137,4.159
		c-7.723,0.012-15.443,0.026-23.166-0.021c-1.043-0.008-1.252,0.305-1.242,1.28c0.053,4.706,0.025,9.413,0.025,14.117
		c0,2.158-0.998,3.174-3.145,3.176c-5.172,0.006-10.341,0.007-15.511,0.003c-2.059-0.003-3.089-1.048-3.092-3.134
		c-0.004-4.773-0.021-9.546,0.021-14.317c0.008-0.872-0.226-1.121-1.107-1.118c-8.187,0.032-16.372,0.02-24.558,0.017
		c-3.017-0.001-4.436-1.426-4.439-4.446c-0.003-3.81,0.027-7.622-0.019-11.433c-0.017-1.396,0.39-2.55,1.256-3.652
		c14.94-19.025,29.859-38.067,44.769-57.117c0.369-0.469,1.164-0.941,0.896-1.492c-0.193-0.396-1.1-0.135-1.682-0.135
		c-12.959-0.009-25.918-0.006-38.876-0.013c-2.26-0.001-3.785-1.116-4.185-3.047c-0.081-0.385-0.087-0.789-0.089-1.185
		c-0.007-4.441-0.014-8.882-0.004-13.323c0.006-2.743,1.499-4.228,4.253-4.23c7.557-0.008,15.113-0.017,22.668,0.015
		c0.87,0.004,1.123-0.221,1.114-1.107c-0.044-4.805-0.024-9.61-0.02-14.417c0.003-2.017,1.038-3.071,3.051-3.076
		c5.17-0.01,10.339-0.01,15.511,0.002c2.182,0.005,3.186,1.043,3.186,3.262c0.004,4.739,0.023,9.479-0.02,14.218
		c-0.01,0.868,0.217,1.121,1.102,1.117c7.723-0.034,15.443-0.022,23.168-0.02c2.75,0,4.268,1.481,4.273,4.207
		c0.01,3.812-0.018,7.622,0.008,11.434c0.008,1.19-0.369,2.185-1.094,3.111c-15.246,19.5-30.486,39.007-45.719,58.517
		c-0.206,0.265-0.674,0.51-0.468,0.884c0.158,0.285,0.612,0.123,0.932,0.123c7.058,0.007,14.117,0.006,21.177,0.006
		C104.711,117.745,104.711,117.744,104.711,117.74z"/>
</g>
</svg>
