<?xml version="1.0" encoding="utf-8"?>
<!-- Generator: Adobe Illustrator 25.2.0, SVG Export Plug-In . SVG Version: 6.00 Build 0)  -->
<svg version="1.1" id="Layer_1" xmlns="http://www.w3.org/2000/svg" xmlns:xlink="http://www.w3.org/1999/xlink" x="0px" y="0px"
	 viewBox="0 0 180 180" style="enable-background:new 0 0 180 180;" xml:space="preserve">
<style type="text/css">
	.st0{fill-rule:evenodd;clip-rule:evenodd;fill:#5A37B3;}
	.st1{fill:#32CC96;}
</style>
<path class="st0" d="M17.6,0h144.9c9.7,0,17.6,17.9,17.6,40.1v99.8c0,22.1-7.9,40.1-17.6,40.1H17.6C7.9,180,0,162.1,0,139.9V40.1
	C0,17.9,7.9,0,17.6,0z"/>
<g>
	<path class="st1" d="M136.8,113.6H96.4l-18.8,21.5h59.1c1.5,0,2.7-1.2,2.7-2.7v-16C139.5,114.8,138.3,113.6,136.8,113.6z"/>
	<path class="st1" d="M136.1,44.9h-84c-1.5,0-2.7,1.2-2.7,2.7v16c0,1.6,1.2,2.8,2.7,2.8h44.5l-55.4,64.1c-1.6,1.8-0.3,4.6,2.1,4.6
		h19.6c0.8,0,1.6-0.3,2.1-1l73.2-84.6C139.8,47.7,138.5,44.9,136.1,44.9z"/>
</g>
</svg>
